<mxfile host="Electron" modified="2023-12-04T02:13:03.459Z" agent="Mozilla/5.0 (Windows NT 10.0; Win64; x64) AppleWebKit/537.36 (KHTML, like Gecko) draw.io/22.1.2 Chrome/114.0.5735.289 Electron/25.9.4 Safari/537.36" etag="FiPa7pfQKLfhUggMwbkK" version="22.1.2" type="device" pages="6">
  <diagram name="Major Objects" id="c4acf3e9-155e-7222-9cf6-157b1a14988f">
    <mxGraphModel dx="1218" dy="-280" grid="1" gridSize="10" guides="1" tooltips="1" connect="1" arrows="1" fold="1" page="1" pageScale="1" pageWidth="850" pageHeight="1100" background="none" math="0" shadow="0">
      <root>
        <mxCell id="0" />
        <mxCell id="1" parent="0" />
        <mxCell id="NJKGsGA8VW1n1Pti0pcr-1" value="«interface»&lt;br&gt;&lt;b&gt;Site&lt;/b&gt;" style="html=1;" parent="1" vertex="1">
          <mxGeometry x="415" y="1413" width="110" height="50" as="geometry" />
        </mxCell>
        <mxCell id="NJKGsGA8VW1n1Pti0pcr-2" value="«interface»&lt;br&gt;&lt;b&gt;Auth&lt;/b&gt;" style="html=1;" parent="1" vertex="1">
          <mxGeometry x="535" y="1483" width="110" height="50" as="geometry" />
        </mxCell>
        <mxCell id="NJKGsGA8VW1n1Pti0pcr-5" value="«interface»&lt;br&gt;&lt;b&gt;Run&lt;/b&gt;" style="html=1;" parent="1" vertex="1">
          <mxGeometry x="535" y="1553" width="110" height="50" as="geometry" />
        </mxCell>
        <mxCell id="NJKGsGA8VW1n1Pti0pcr-6" value="«interface»&lt;br&gt;&lt;b&gt;Repo&lt;/b&gt;" style="html=1;" parent="1" vertex="1">
          <mxGeometry x="535" y="1623" width="110" height="50" as="geometry" />
        </mxCell>
        <mxCell id="NJKGsGA8VW1n1Pti0pcr-7" value="«interface»&lt;br&gt;&lt;b&gt;Spin&lt;/b&gt;" style="html=1;" parent="1" vertex="1">
          <mxGeometry x="535" y="1693" width="110" height="50" as="geometry" />
        </mxCell>
        <mxCell id="NJKGsGA8VW1n1Pti0pcr-9" value="LocalSiteDriver" style="swimlane;fontStyle=1;align=center;verticalAlign=top;childLayout=stackLayout;horizontal=1;startSize=26;horizontalStack=0;resizeParent=1;resizeParentMax=0;resizeLast=0;collapsible=1;marginBottom=0;" parent="1" vertex="1">
          <mxGeometry x="205" y="1380" width="160" height="100" as="geometry" />
        </mxCell>
        <mxCell id="NJKGsGA8VW1n1Pti0pcr-10" value="+ authDriver: Auth&#xa;+ runDriver: Run&#xa;+ repoDriver: Repo&#xa;+ spinDriver: Spin&#xa;" style="text;strokeColor=none;fillColor=none;align=left;verticalAlign=top;spacingLeft=4;spacingRight=4;overflow=hidden;rotatable=0;points=[[0,0.5],[1,0.5]];portConstraint=eastwest;" parent="NJKGsGA8VW1n1Pti0pcr-9" vertex="1">
          <mxGeometry y="26" width="160" height="64" as="geometry" />
        </mxCell>
        <mxCell id="NJKGsGA8VW1n1Pti0pcr-11" value="" style="line;strokeWidth=1;fillColor=none;align=left;verticalAlign=middle;spacingTop=-1;spacingLeft=3;spacingRight=3;rotatable=0;labelPosition=right;points=[];portConstraint=eastwest;strokeColor=inherit;" parent="NJKGsGA8VW1n1Pti0pcr-9" vertex="1">
          <mxGeometry y="90" width="160" height="10" as="geometry" />
        </mxCell>
        <mxCell id="NJKGsGA8VW1n1Pti0pcr-13" value="Job Status&#xa;Sentinel " style="shape=module;align=left;spacingLeft=20;align=center;verticalAlign=top;" parent="1" vertex="1">
          <mxGeometry x="235" y="1540" width="100" height="50" as="geometry" />
        </mxCell>
        <mxCell id="NJKGsGA8VW1n1Pti0pcr-14" value="RunRepo" style="shape=module;align=left;spacingLeft=20;align=center;verticalAlign=top;" parent="1" vertex="1">
          <mxGeometry x="235" y="1600" width="100" height="50" as="geometry" />
        </mxCell>
        <mxCell id="NJKGsGA8VW1n1Pti0pcr-15" value="MetaRepo" style="shape=module;align=left;spacingLeft=20;align=center;verticalAlign=top;" parent="1" vertex="1">
          <mxGeometry x="235" y="1660" width="100" height="50" as="geometry" />
        </mxCell>
        <mxCell id="NJKGsGA8VW1n1Pti0pcr-16" value="Job Context" style="swimlane;fontStyle=1;align=center;verticalAlign=top;childLayout=stackLayout;horizontal=1;startSize=26;horizontalStack=0;resizeParent=1;resizeParentMax=0;resizeLast=0;collapsible=1;marginBottom=0;" parent="1" vertex="1">
          <mxGeometry x="230" y="1890" width="160" height="138" as="geometry" />
        </mxCell>
        <mxCell id="NJKGsGA8VW1n1Pti0pcr-17" value="+ jobId: string&#xa;+ nativeSiteJobId: string &#xa;+ parentJobId: string&#xa;+ originJobId: string" style="text;strokeColor=none;fillColor=none;align=left;verticalAlign=top;spacingLeft=4;spacingRight=4;overflow=hidden;rotatable=0;points=[[0,0.5],[1,0.5]];portConstraint=eastwest;" parent="NJKGsGA8VW1n1Pti0pcr-16" vertex="1">
          <mxGeometry y="26" width="160" height="74" as="geometry" />
        </mxCell>
        <mxCell id="NJKGsGA8VW1n1Pti0pcr-18" value="" style="line;strokeWidth=1;fillColor=none;align=left;verticalAlign=middle;spacingTop=-1;spacingLeft=3;spacingRight=3;rotatable=0;labelPosition=right;points=[];portConstraint=eastwest;strokeColor=inherit;" parent="NJKGsGA8VW1n1Pti0pcr-16" vertex="1">
          <mxGeometry y="100" width="160" height="12" as="geometry" />
        </mxCell>
        <mxCell id="NJKGsGA8VW1n1Pti0pcr-19" value="+ method(type): type" style="text;strokeColor=none;fillColor=none;align=left;verticalAlign=top;spacingLeft=4;spacingRight=4;overflow=hidden;rotatable=0;points=[[0,0.5],[1,0.5]];portConstraint=eastwest;" parent="NJKGsGA8VW1n1Pti0pcr-16" vertex="1">
          <mxGeometry y="112" width="160" height="26" as="geometry" />
        </mxCell>
        <mxCell id="NJKGsGA8VW1n1Pti0pcr-20" value="Job Status" style="swimlane;fontStyle=1;align=center;verticalAlign=top;childLayout=stackLayout;horizontal=1;startSize=26;horizontalStack=0;resizeParent=1;resizeParentMax=0;resizeLast=0;collapsible=1;marginBottom=0;" parent="1" vertex="1">
          <mxGeometry x="20" y="1907" width="160" height="104" as="geometry" />
        </mxCell>
        <mxCell id="NJKGsGA8VW1n1Pti0pcr-21" value="+ status: string&#xa;+ emitDate: datetime" style="text;strokeColor=none;fillColor=none;align=left;verticalAlign=top;spacingLeft=4;spacingRight=4;overflow=hidden;rotatable=0;points=[[0,0.5],[1,0.5]];portConstraint=eastwest;" parent="NJKGsGA8VW1n1Pti0pcr-20" vertex="1">
          <mxGeometry y="26" width="160" height="44" as="geometry" />
        </mxCell>
        <mxCell id="NJKGsGA8VW1n1Pti0pcr-22" value="" style="line;strokeWidth=1;fillColor=none;align=left;verticalAlign=middle;spacingTop=-1;spacingLeft=3;spacingRight=3;rotatable=0;labelPosition=right;points=[];portConstraint=eastwest;strokeColor=inherit;" parent="NJKGsGA8VW1n1Pti0pcr-20" vertex="1">
          <mxGeometry y="70" width="160" height="8" as="geometry" />
        </mxCell>
        <mxCell id="NJKGsGA8VW1n1Pti0pcr-23" value="+ method(type): type" style="text;strokeColor=none;fillColor=none;align=left;verticalAlign=top;spacingLeft=4;spacingRight=4;overflow=hidden;rotatable=0;points=[[0,0.5],[1,0.5]];portConstraint=eastwest;" parent="NJKGsGA8VW1n1Pti0pcr-20" vertex="1">
          <mxGeometry y="78" width="160" height="26" as="geometry" />
        </mxCell>
        <mxCell id="NJKGsGA8VW1n1Pti0pcr-24" value="Job" style="swimlane;fontStyle=1;align=center;verticalAlign=top;childLayout=stackLayout;horizontal=1;startSize=26;horizontalStack=0;resizeParent=1;resizeParentMax=0;resizeLast=0;collapsible=1;marginBottom=0;" parent="1" vertex="1">
          <mxGeometry x="230" y="1796" width="160" height="34" as="geometry" />
        </mxCell>
        <mxCell id="NJKGsGA8VW1n1Pti0pcr-26" value="" style="line;strokeWidth=1;fillColor=none;align=left;verticalAlign=middle;spacingTop=-1;spacingLeft=3;spacingRight=3;rotatable=0;labelPosition=right;points=[];portConstraint=eastwest;strokeColor=inherit;" parent="NJKGsGA8VW1n1Pti0pcr-24" vertex="1">
          <mxGeometry y="26" width="160" height="8" as="geometry" />
        </mxCell>
        <mxCell id="NJKGsGA8VW1n1Pti0pcr-28" value="Job Defn" style="swimlane;fontStyle=1;align=center;verticalAlign=top;childLayout=stackLayout;horizontal=1;startSize=26;horizontalStack=0;resizeParent=1;resizeParentMax=0;resizeLast=0;collapsible=1;marginBottom=0;" parent="1" vertex="1">
          <mxGeometry x="440" y="1790" width="160" height="34" as="geometry" />
        </mxCell>
        <mxCell id="NJKGsGA8VW1n1Pti0pcr-30" value="" style="line;strokeWidth=1;fillColor=none;align=left;verticalAlign=middle;spacingTop=-1;spacingLeft=3;spacingRight=3;rotatable=0;labelPosition=right;points=[];portConstraint=eastwest;strokeColor=inherit;" parent="NJKGsGA8VW1n1Pti0pcr-28" vertex="1">
          <mxGeometry y="26" width="160" height="8" as="geometry" />
        </mxCell>
        <mxCell id="NJKGsGA8VW1n1Pti0pcr-32" value="Repo Job Defn" style="swimlane;fontStyle=1;align=center;verticalAlign=top;childLayout=stackLayout;horizontal=1;startSize=26;horizontalStack=0;resizeParent=1;resizeParentMax=0;resizeLast=0;collapsible=1;marginBottom=0;" parent="1" vertex="1">
          <mxGeometry x="440" y="1884" width="160" height="34" as="geometry" />
        </mxCell>
        <mxCell id="NJKGsGA8VW1n1Pti0pcr-34" value="" style="line;strokeWidth=1;fillColor=none;align=left;verticalAlign=middle;spacingTop=-1;spacingLeft=3;spacingRight=3;rotatable=0;labelPosition=right;points=[];portConstraint=eastwest;strokeColor=inherit;" parent="NJKGsGA8VW1n1Pti0pcr-32" vertex="1">
          <mxGeometry y="26" width="160" height="8" as="geometry" />
        </mxCell>
        <mxCell id="NJKGsGA8VW1n1Pti0pcr-36" value="TargetRef" style="swimlane;fontStyle=1;align=center;verticalAlign=top;childLayout=stackLayout;horizontal=1;startSize=26;horizontalStack=0;resizeParent=1;resizeParentMax=0;resizeLast=0;collapsible=1;marginBottom=0;" parent="1" vertex="1">
          <mxGeometry x="680" y="1813" width="160" height="34" as="geometry" />
        </mxCell>
        <mxCell id="NJKGsGA8VW1n1Pti0pcr-38" value="" style="line;strokeWidth=1;fillColor=none;align=left;verticalAlign=middle;spacingTop=-1;spacingLeft=3;spacingRight=3;rotatable=0;labelPosition=right;points=[];portConstraint=eastwest;strokeColor=inherit;" parent="NJKGsGA8VW1n1Pti0pcr-36" vertex="1">
          <mxGeometry y="26" width="160" height="8" as="geometry" />
        </mxCell>
        <mxCell id="NJKGsGA8VW1n1Pti0pcr-40" value="FS Site File Ref" style="swimlane;fontStyle=1;align=center;verticalAlign=top;childLayout=stackLayout;horizontal=1;startSize=26;horizontalStack=0;resizeParent=1;resizeParentMax=0;resizeLast=0;collapsible=1;marginBottom=0;" parent="1" vertex="1">
          <mxGeometry x="680" y="1907" width="160" height="34" as="geometry" />
        </mxCell>
        <mxCell id="NJKGsGA8VW1n1Pti0pcr-42" value="" style="line;strokeWidth=1;fillColor=none;align=left;verticalAlign=middle;spacingTop=-1;spacingLeft=3;spacingRight=3;rotatable=0;labelPosition=right;points=[];portConstraint=eastwest;strokeColor=inherit;" parent="NJKGsGA8VW1n1Pti0pcr-40" vertex="1">
          <mxGeometry y="26" width="160" height="8" as="geometry" />
        </mxCell>
        <mxCell id="NJKGsGA8VW1n1Pti0pcr-44" value="Remote FS Site File Ref" style="swimlane;fontStyle=1;align=center;verticalAlign=top;childLayout=stackLayout;horizontal=1;startSize=26;horizontalStack=0;resizeParent=1;resizeParentMax=0;resizeLast=0;collapsible=1;marginBottom=0;" parent="1" vertex="1">
          <mxGeometry x="680" y="1994" width="160" height="34" as="geometry" />
        </mxCell>
        <mxCell id="NJKGsGA8VW1n1Pti0pcr-46" value="" style="line;strokeWidth=1;fillColor=none;align=left;verticalAlign=middle;spacingTop=-1;spacingLeft=3;spacingRight=3;rotatable=0;labelPosition=right;points=[];portConstraint=eastwest;strokeColor=inherit;" parent="NJKGsGA8VW1n1Pti0pcr-44" vertex="1">
          <mxGeometry y="26" width="160" height="8" as="geometry" />
        </mxCell>
        <mxCell id="NJKGsGA8VW1n1Pti0pcr-48" value="" style="endArrow=open;html=1;endSize=12;startArrow=diamondThin;startSize=14;startFill=0;edgeStyle=orthogonalEdgeStyle;align=left;verticalAlign=bottom;rounded=0;exitX=0.5;exitY=1;exitDx=0;exitDy=0;entryX=0;entryY=0.5;entryDx=0;entryDy=0;" parent="1" source="NJKGsGA8VW1n1Pti0pcr-1" target="NJKGsGA8VW1n1Pti0pcr-2" edge="1">
          <mxGeometry x="-1" y="3" relative="1" as="geometry">
            <mxPoint x="505" y="1843" as="sourcePoint" />
            <mxPoint x="665" y="1843" as="targetPoint" />
          </mxGeometry>
        </mxCell>
        <mxCell id="NJKGsGA8VW1n1Pti0pcr-49" value="" style="endArrow=open;html=1;endSize=12;startArrow=diamondThin;startSize=14;startFill=0;edgeStyle=orthogonalEdgeStyle;align=left;verticalAlign=bottom;rounded=0;exitX=0.5;exitY=1;exitDx=0;exitDy=0;entryX=0;entryY=0.5;entryDx=0;entryDy=0;" parent="1" source="NJKGsGA8VW1n1Pti0pcr-1" target="NJKGsGA8VW1n1Pti0pcr-5" edge="1">
          <mxGeometry x="-1" y="3" relative="1" as="geometry">
            <mxPoint x="480" y="1473" as="sourcePoint" />
            <mxPoint x="545" y="1518" as="targetPoint" />
          </mxGeometry>
        </mxCell>
        <mxCell id="NJKGsGA8VW1n1Pti0pcr-50" value="" style="endArrow=open;html=1;endSize=12;startArrow=diamondThin;startSize=14;startFill=0;edgeStyle=orthogonalEdgeStyle;align=left;verticalAlign=bottom;rounded=0;exitX=0.5;exitY=1;exitDx=0;exitDy=0;entryX=0;entryY=0.5;entryDx=0;entryDy=0;" parent="1" source="NJKGsGA8VW1n1Pti0pcr-1" target="NJKGsGA8VW1n1Pti0pcr-6" edge="1">
          <mxGeometry x="-1" y="3" relative="1" as="geometry">
            <mxPoint x="480" y="1473" as="sourcePoint" />
            <mxPoint x="545" y="1588" as="targetPoint" />
          </mxGeometry>
        </mxCell>
        <mxCell id="NJKGsGA8VW1n1Pti0pcr-51" value="" style="endArrow=open;html=1;endSize=12;startArrow=diamondThin;startSize=14;startFill=0;edgeStyle=orthogonalEdgeStyle;align=left;verticalAlign=bottom;rounded=0;entryX=0;entryY=0.5;entryDx=0;entryDy=0;exitX=0.5;exitY=1;exitDx=0;exitDy=0;" parent="1" source="NJKGsGA8VW1n1Pti0pcr-1" target="NJKGsGA8VW1n1Pti0pcr-7" edge="1">
          <mxGeometry x="-1" y="3" relative="1" as="geometry">
            <mxPoint x="475" y="1463" as="sourcePoint" />
            <mxPoint x="545" y="1658" as="targetPoint" />
          </mxGeometry>
        </mxCell>
        <mxCell id="NJKGsGA8VW1n1Pti0pcr-52" value="" style="endArrow=block;dashed=1;endFill=0;endSize=12;html=1;rounded=0;entryX=0;entryY=0.5;entryDx=0;entryDy=0;" parent="1" source="NJKGsGA8VW1n1Pti0pcr-10" target="NJKGsGA8VW1n1Pti0pcr-1" edge="1">
          <mxGeometry width="160" relative="1" as="geometry">
            <mxPoint x="285" y="1763" as="sourcePoint" />
            <mxPoint x="445" y="1763" as="targetPoint" />
          </mxGeometry>
        </mxCell>
        <mxCell id="NJKGsGA8VW1n1Pti0pcr-53" value="" style="endArrow=block;endSize=16;endFill=0;html=1;rounded=0;" parent="1" source="NJKGsGA8VW1n1Pti0pcr-32" target="NJKGsGA8VW1n1Pti0pcr-28" edge="1">
          <mxGeometry width="160" relative="1" as="geometry">
            <mxPoint x="500" y="2040" as="sourcePoint" />
            <mxPoint x="660" y="2040" as="targetPoint" />
          </mxGeometry>
        </mxCell>
        <mxCell id="NJKGsGA8VW1n1Pti0pcr-54" value="" style="endArrow=open;endSize=12;dashed=1;html=1;rounded=0;" parent="1" source="NJKGsGA8VW1n1Pti0pcr-24" target="NJKGsGA8VW1n1Pti0pcr-28" edge="1">
          <mxGeometry width="160" relative="1" as="geometry">
            <mxPoint x="370" y="1780" as="sourcePoint" />
            <mxPoint x="530" y="1780" as="targetPoint" />
          </mxGeometry>
        </mxCell>
        <mxCell id="NJKGsGA8VW1n1Pti0pcr-56" value="" style="endArrow=diamondThin;endFill=1;endSize=24;html=1;rounded=0;entryX=0.5;entryY=1;entryDx=0;entryDy=0;exitX=0.5;exitY=0;exitDx=0;exitDy=0;" parent="1" source="NJKGsGA8VW1n1Pti0pcr-16" target="NJKGsGA8VW1n1Pti0pcr-24" edge="1">
          <mxGeometry width="160" relative="1" as="geometry">
            <mxPoint x="70" y="2050" as="sourcePoint" />
            <mxPoint x="230" y="2050" as="targetPoint" />
          </mxGeometry>
        </mxCell>
        <mxCell id="NJKGsGA8VW1n1Pti0pcr-57" value="" style="endArrow=diamondThin;endFill=0;endSize=24;html=1;rounded=0;" parent="1" source="NJKGsGA8VW1n1Pti0pcr-16" target="NJKGsGA8VW1n1Pti0pcr-20" edge="1">
          <mxGeometry width="160" relative="1" as="geometry">
            <mxPoint x="200" y="2080" as="sourcePoint" />
            <mxPoint x="360" y="2080" as="targetPoint" />
          </mxGeometry>
        </mxCell>
        <mxCell id="NJKGsGA8VW1n1Pti0pcr-58" value="" style="endArrow=block;startArrow=block;endFill=1;startFill=1;html=1;rounded=0;" parent="1" source="NJKGsGA8VW1n1Pti0pcr-20" target="NJKGsGA8VW1n1Pti0pcr-24" edge="1">
          <mxGeometry width="160" relative="1" as="geometry">
            <mxPoint x="-10" y="1800" as="sourcePoint" />
            <mxPoint x="150" y="1800" as="targetPoint" />
            <Array as="points">
              <mxPoint x="100" y="1813" />
            </Array>
          </mxGeometry>
        </mxCell>
        <mxCell id="NJKGsGA8VW1n1Pti0pcr-59" value="" style="endArrow=block;endSize=16;endFill=0;html=1;rounded=0;" parent="1" source="NJKGsGA8VW1n1Pti0pcr-40" target="NJKGsGA8VW1n1Pti0pcr-36" edge="1">
          <mxGeometry width="160" relative="1" as="geometry">
            <mxPoint x="780" y="2174" as="sourcePoint" />
            <mxPoint x="940" y="2174" as="targetPoint" />
          </mxGeometry>
        </mxCell>
        <mxCell id="NJKGsGA8VW1n1Pti0pcr-60" value="" style="endArrow=block;endSize=16;endFill=0;html=1;rounded=0;" parent="1" source="NJKGsGA8VW1n1Pti0pcr-44" target="NJKGsGA8VW1n1Pti0pcr-40" edge="1">
          <mxGeometry width="160" relative="1" as="geometry">
            <mxPoint x="790" y="2204" as="sourcePoint" />
            <mxPoint x="950" y="2204" as="targetPoint" />
          </mxGeometry>
        </mxCell>
        <mxCell id="i7Ba7Ujq-lG89JOSGBHK-1" value="JobEventHandler" style="swimlane;fontStyle=1;align=center;verticalAlign=top;childLayout=stackLayout;horizontal=1;startSize=26;horizontalStack=0;resizeParent=1;resizeParentMax=0;resizeLast=0;collapsible=1;marginBottom=0;" parent="1" vertex="1">
          <mxGeometry x="440" y="1971" width="160" height="34" as="geometry" />
        </mxCell>
        <mxCell id="i7Ba7Ujq-lG89JOSGBHK-3" value="" style="line;strokeWidth=1;fillColor=none;align=left;verticalAlign=middle;spacingTop=-1;spacingLeft=3;spacingRight=3;rotatable=0;labelPosition=right;points=[];portConstraint=eastwest;strokeColor=inherit;" parent="i7Ba7Ujq-lG89JOSGBHK-1" vertex="1">
          <mxGeometry y="26" width="160" height="8" as="geometry" />
        </mxCell>
        <mxCell id="c_C8pORIV0vGCSQo9uPc-1" value="Compute Type" style="swimlane;fontStyle=1;align=center;verticalAlign=top;childLayout=stackLayout;horizontal=1;startSize=26;horizontalStack=0;resizeParent=1;resizeParentMax=0;resizeLast=0;collapsible=1;marginBottom=0;" parent="1" vertex="1">
          <mxGeometry x="590" y="1421" width="110" height="34" as="geometry" />
        </mxCell>
        <mxCell id="c_C8pORIV0vGCSQo9uPc-3" value="" style="line;strokeWidth=1;fillColor=none;align=left;verticalAlign=middle;spacingTop=-1;spacingLeft=3;spacingRight=3;rotatable=0;labelPosition=right;points=[];portConstraint=eastwest;strokeColor=inherit;" parent="c_C8pORIV0vGCSQo9uPc-1" vertex="1">
          <mxGeometry y="26" width="110" height="8" as="geometry" />
        </mxCell>
        <mxCell id="c_C8pORIV0vGCSQo9uPc-5" value="" style="endArrow=diamondThin;endFill=0;endSize=24;html=1;rounded=0;entryX=1;entryY=0.5;entryDx=0;entryDy=0;exitX=0;exitY=0.5;exitDx=0;exitDy=0;" parent="1" source="c_C8pORIV0vGCSQo9uPc-1" target="NJKGsGA8VW1n1Pti0pcr-1" edge="1">
          <mxGeometry width="160" relative="1" as="geometry">
            <mxPoint x="550" y="1370" as="sourcePoint" />
            <mxPoint x="710" y="1370" as="targetPoint" />
          </mxGeometry>
        </mxCell>
        <mxCell id="b58waiYr4DQn5Z33TyLv-1" value="User" style="swimlane;fontStyle=1;align=center;verticalAlign=top;childLayout=stackLayout;horizontal=1;startSize=26;horizontalStack=0;resizeParent=1;resizeParentMax=0;resizeLast=0;collapsible=1;marginBottom=0;" parent="1" vertex="1">
          <mxGeometry x="610" y="1240" width="90" height="34" as="geometry" />
        </mxCell>
        <mxCell id="b58waiYr4DQn5Z33TyLv-2" value="" style="line;strokeWidth=1;fillColor=none;align=left;verticalAlign=middle;spacingTop=-1;spacingLeft=3;spacingRight=3;rotatable=0;labelPosition=right;points=[];portConstraint=eastwest;strokeColor=inherit;" parent="b58waiYr4DQn5Z33TyLv-1" vertex="1">
          <mxGeometry y="26" width="90" height="8" as="geometry" />
        </mxCell>
        <mxCell id="b58waiYr4DQn5Z33TyLv-3" value="Tenancy" style="swimlane;fontStyle=1;align=center;verticalAlign=top;childLayout=stackLayout;horizontal=1;startSize=26;horizontalStack=0;resizeParent=1;resizeParentMax=0;resizeLast=0;collapsible=1;marginBottom=0;" parent="1" vertex="1">
          <mxGeometry x="440" y="1240" width="100" height="34" as="geometry" />
        </mxCell>
        <mxCell id="b58waiYr4DQn5Z33TyLv-4" value="" style="line;strokeWidth=1;fillColor=none;align=left;verticalAlign=middle;spacingTop=-1;spacingLeft=3;spacingRight=3;rotatable=0;labelPosition=right;points=[];portConstraint=eastwest;strokeColor=inherit;" parent="b58waiYr4DQn5Z33TyLv-3" vertex="1">
          <mxGeometry y="26" width="100" height="8" as="geometry" />
        </mxCell>
        <mxCell id="b58waiYr4DQn5Z33TyLv-5" value="" style="endArrow=block;startArrow=block;endFill=1;startFill=1;html=1;rounded=0;exitX=1;exitY=0.5;exitDx=0;exitDy=0;entryX=0;entryY=0.5;entryDx=0;entryDy=0;" parent="1" source="b58waiYr4DQn5Z33TyLv-3" target="b58waiYr4DQn5Z33TyLv-1" edge="1">
          <mxGeometry width="160" relative="1" as="geometry">
            <mxPoint x="550" y="1320" as="sourcePoint" />
            <mxPoint x="710" y="1320" as="targetPoint" />
          </mxGeometry>
        </mxCell>
        <mxCell id="b58waiYr4DQn5Z33TyLv-6" value="Data Classification" style="swimlane;fontStyle=1;align=center;verticalAlign=top;childLayout=stackLayout;horizontal=1;startSize=26;horizontalStack=0;resizeParent=1;resizeParentMax=0;resizeLast=0;collapsible=1;marginBottom=0;" parent="1" vertex="1">
          <mxGeometry x="420" y="1320" width="140" height="34" as="geometry" />
        </mxCell>
        <mxCell id="b58waiYr4DQn5Z33TyLv-7" value="" style="line;strokeWidth=1;fillColor=none;align=left;verticalAlign=middle;spacingTop=-1;spacingLeft=3;spacingRight=3;rotatable=0;labelPosition=right;points=[];portConstraint=eastwest;strokeColor=inherit;" parent="b58waiYr4DQn5Z33TyLv-6" vertex="1">
          <mxGeometry y="26" width="140" height="8" as="geometry" />
        </mxCell>
        <mxCell id="b58waiYr4DQn5Z33TyLv-8" value="" style="endArrow=diamondThin;endFill=0;endSize=24;html=1;rounded=0;entryX=0.5;entryY=1;entryDx=0;entryDy=0;" parent="1" source="b58waiYr4DQn5Z33TyLv-6" target="b58waiYr4DQn5Z33TyLv-3" edge="1">
          <mxGeometry width="160" relative="1" as="geometry">
            <mxPoint x="590" y="1410" as="sourcePoint" />
            <mxPoint x="750" y="1410" as="targetPoint" />
          </mxGeometry>
        </mxCell>
        <mxCell id="b58waiYr4DQn5Z33TyLv-9" value="" style="endArrow=open;html=1;endSize=12;startArrow=diamondThin;startSize=14;startFill=1;edgeStyle=orthogonalEdgeStyle;align=left;verticalAlign=bottom;rounded=0;exitX=-0.03;exitY=0.5;exitDx=0;exitDy=0;exitPerimeter=0;entryX=0.25;entryY=0;entryDx=0;entryDy=0;" parent="1" source="b58waiYr4DQn5Z33TyLv-3" target="b58waiYr4DQn5Z33TyLv-3" edge="1">
          <mxGeometry x="-1" y="3" relative="1" as="geometry">
            <mxPoint x="440" y="1430" as="sourcePoint" />
            <mxPoint x="440" y="1220" as="targetPoint" />
            <Array as="points">
              <mxPoint x="400" y="1257" />
              <mxPoint x="400" y="1220" />
              <mxPoint x="465" y="1220" />
            </Array>
          </mxGeometry>
        </mxCell>
        <mxCell id="b58waiYr4DQn5Z33TyLv-10" value="Metadata Sheet" style="swimlane;fontStyle=1;align=center;verticalAlign=top;childLayout=stackLayout;horizontal=1;startSize=26;horizontalStack=0;resizeParent=1;resizeParentMax=0;resizeLast=0;collapsible=1;marginBottom=0;" parent="1" vertex="1">
          <mxGeometry x="680" y="1730" width="160" height="34" as="geometry" />
        </mxCell>
        <mxCell id="b58waiYr4DQn5Z33TyLv-11" value="" style="line;strokeWidth=1;fillColor=none;align=left;verticalAlign=middle;spacingTop=-1;spacingLeft=3;spacingRight=3;rotatable=0;labelPosition=right;points=[];portConstraint=eastwest;strokeColor=inherit;" parent="b58waiYr4DQn5Z33TyLv-10" vertex="1">
          <mxGeometry y="26" width="160" height="8" as="geometry" />
        </mxCell>
        <mxCell id="b58waiYr4DQn5Z33TyLv-13" value="" style="endArrow=diamondThin;endFill=1;endSize=24;html=1;rounded=0;entryX=0.5;entryY=1;entryDx=0;entryDy=0;exitX=0.5;exitY=0;exitDx=0;exitDy=0;" parent="1" source="NJKGsGA8VW1n1Pti0pcr-36" target="b58waiYr4DQn5Z33TyLv-10" edge="1">
          <mxGeometry width="160" relative="1" as="geometry">
            <mxPoint x="830" y="1580" as="sourcePoint" />
            <mxPoint x="990" y="1580" as="targetPoint" />
          </mxGeometry>
        </mxCell>
      </root>
    </mxGraphModel>
  </diagram>
  <diagram id="P7xMVqIZGvh-mTvLZQHD" name="Subsystem Stack">
    <mxGraphModel dx="1218" dy="909" grid="1" gridSize="10" guides="1" tooltips="1" connect="1" arrows="1" fold="1" page="1" pageScale="1" pageWidth="1169" pageHeight="827" math="0" shadow="0">
      <root>
        <mxCell id="0" />
        <mxCell id="1" parent="0" />
        <mxCell id="GrSWG6mgI-wBd2yAty5X-13" value="" style="rounded=0;whiteSpace=wrap;html=1;" parent="1" vertex="1">
          <mxGeometry x="640" y="362" width="140" height="158" as="geometry" />
        </mxCell>
        <mxCell id="GrSWG6mgI-wBd2yAty5X-12" value="" style="rounded=0;whiteSpace=wrap;html=1;" parent="1" vertex="1">
          <mxGeometry x="500" y="362" width="140" height="158" as="geometry" />
        </mxCell>
        <mxCell id="GrSWG6mgI-wBd2yAty5X-11" value="" style="rounded=0;whiteSpace=wrap;html=1;" parent="1" vertex="1">
          <mxGeometry x="360" y="362" width="140" height="158" as="geometry" />
        </mxCell>
        <mxCell id="GrSWG6mgI-wBd2yAty5X-10" value="" style="rounded=0;whiteSpace=wrap;html=1;" parent="1" vertex="1">
          <mxGeometry x="220" y="362" width="140" height="158" as="geometry" />
        </mxCell>
        <mxCell id="u7lhu3TAuGMvW-fpwVDR-1" value="&lt;p style=&quot;margin:0px;margin-top:6px;text-align:center;&quot;&gt;&lt;b&gt;MetaRepo&lt;/b&gt;&lt;/p&gt;" style="align=left;overflow=fill;html=1;dropTarget=0;" parent="1" vertex="1">
          <mxGeometry x="510" y="392" width="120" height="30" as="geometry" />
        </mxCell>
        <mxCell id="u7lhu3TAuGMvW-fpwVDR-2" value="" style="shape=component;jettyWidth=8;jettyHeight=4;" parent="u7lhu3TAuGMvW-fpwVDR-1" vertex="1">
          <mxGeometry x="1" width="20" height="20" relative="1" as="geometry">
            <mxPoint x="-24" y="4" as="offset" />
          </mxGeometry>
        </mxCell>
        <mxCell id="u7lhu3TAuGMvW-fpwVDR-3" value="&lt;p style=&quot;margin:0px;margin-top:6px;text-align:center;&quot;&gt;&lt;b&gt;RunRepo&lt;/b&gt;&lt;/p&gt;" style="align=left;overflow=fill;html=1;dropTarget=0;" parent="1" vertex="1">
          <mxGeometry x="510" y="432" width="120" height="30" as="geometry" />
        </mxCell>
        <mxCell id="u7lhu3TAuGMvW-fpwVDR-4" value="" style="shape=component;jettyWidth=8;jettyHeight=4;" parent="u7lhu3TAuGMvW-fpwVDR-3" vertex="1">
          <mxGeometry x="1" width="20" height="20" relative="1" as="geometry">
            <mxPoint x="-24" y="4" as="offset" />
          </mxGeometry>
        </mxCell>
        <mxCell id="GrSWG6mgI-wBd2yAty5X-1" value="&lt;p style=&quot;margin:0px;margin-top:6px;text-align:center;&quot;&gt;&lt;b&gt;Runtime&lt;/b&gt;&lt;/p&gt;" style="align=left;overflow=fill;html=1;dropTarget=0;" parent="1" vertex="1">
          <mxGeometry x="370" y="392" width="120" height="30" as="geometry" />
        </mxCell>
        <mxCell id="GrSWG6mgI-wBd2yAty5X-2" value="" style="shape=component;jettyWidth=8;jettyHeight=4;" parent="GrSWG6mgI-wBd2yAty5X-1" vertex="1">
          <mxGeometry x="1" width="20" height="20" relative="1" as="geometry">
            <mxPoint x="-24" y="4" as="offset" />
          </mxGeometry>
        </mxCell>
        <mxCell id="GrSWG6mgI-wBd2yAty5X-3" value="&lt;p style=&quot;margin:0px;margin-top:6px;text-align:center;&quot;&gt;&lt;b&gt;Auth Driver&amp;nbsp;&lt;/b&gt;&lt;/p&gt;" style="align=left;overflow=fill;html=1;dropTarget=0;" parent="1" vertex="1">
          <mxGeometry x="230" y="392" width="120" height="30" as="geometry" />
        </mxCell>
        <mxCell id="GrSWG6mgI-wBd2yAty5X-4" value="" style="shape=component;jettyWidth=8;jettyHeight=4;" parent="GrSWG6mgI-wBd2yAty5X-3" vertex="1">
          <mxGeometry x="1" width="20" height="20" relative="1" as="geometry">
            <mxPoint x="-24" y="4" as="offset" />
          </mxGeometry>
        </mxCell>
        <mxCell id="GrSWG6mgI-wBd2yAty5X-5" value="&lt;p style=&quot;margin:0px;margin-top:6px;text-align:center;&quot;&gt;&lt;b&gt;Vendor API&lt;/b&gt;&lt;/p&gt;" style="align=left;overflow=fill;html=1;dropTarget=0;" parent="1" vertex="1">
          <mxGeometry x="650" y="392" width="120" height="30" as="geometry" />
        </mxCell>
        <mxCell id="GrSWG6mgI-wBd2yAty5X-6" value="" style="shape=component;jettyWidth=8;jettyHeight=4;" parent="GrSWG6mgI-wBd2yAty5X-5" vertex="1">
          <mxGeometry x="1" width="20" height="20" relative="1" as="geometry">
            <mxPoint x="-24" y="4" as="offset" />
          </mxGeometry>
        </mxCell>
        <mxCell id="GrSWG6mgI-wBd2yAty5X-7" value="&lt;p style=&quot;margin:0px;margin-top:6px;text-align:center;&quot;&gt;&lt;b&gt;Registrar&amp;nbsp;&lt;/b&gt;&lt;/p&gt;" style="align=left;overflow=fill;html=1;dropTarget=0;" parent="1" vertex="1">
          <mxGeometry x="370" y="432" width="120" height="30" as="geometry" />
        </mxCell>
        <mxCell id="GrSWG6mgI-wBd2yAty5X-8" value="" style="shape=component;jettyWidth=8;jettyHeight=4;" parent="GrSWG6mgI-wBd2yAty5X-7" vertex="1">
          <mxGeometry x="1" width="20" height="20" relative="1" as="geometry">
            <mxPoint x="-24" y="4" as="offset" />
          </mxGeometry>
        </mxCell>
        <mxCell id="GrSWG6mgI-wBd2yAty5X-9" value="Stores" style="shape=cylinder3;whiteSpace=wrap;html=1;boundedLbl=1;backgroundOutline=1;size=15;" parent="1" vertex="1">
          <mxGeometry x="540" y="530" width="60" height="70" as="geometry" />
        </mxCell>
        <mxCell id="GrSWG6mgI-wBd2yAty5X-15" value="&lt;b&gt;Auth&lt;/b&gt;" style="text;html=1;strokeColor=none;fillColor=none;align=center;verticalAlign=middle;whiteSpace=wrap;rounded=0;" parent="1" vertex="1">
          <mxGeometry x="260" y="362" width="60" height="30" as="geometry" />
        </mxCell>
        <mxCell id="GrSWG6mgI-wBd2yAty5X-16" value="&lt;b&gt;Run&lt;/b&gt;" style="text;html=1;strokeColor=none;fillColor=none;align=center;verticalAlign=middle;whiteSpace=wrap;rounded=0;" parent="1" vertex="1">
          <mxGeometry x="400" y="362" width="60" height="30" as="geometry" />
        </mxCell>
        <mxCell id="GrSWG6mgI-wBd2yAty5X-18" value="&lt;b&gt;Repo&lt;/b&gt;" style="text;html=1;strokeColor=none;fillColor=none;align=center;verticalAlign=middle;whiteSpace=wrap;rounded=0;" parent="1" vertex="1">
          <mxGeometry x="535" y="362" width="60" height="30" as="geometry" />
        </mxCell>
        <mxCell id="GrSWG6mgI-wBd2yAty5X-19" value="&lt;b&gt;Spin&lt;/b&gt;" style="text;html=1;strokeColor=none;fillColor=none;align=center;verticalAlign=middle;whiteSpace=wrap;rounded=0;" parent="1" vertex="1">
          <mxGeometry x="680" y="362" width="60" height="30" as="geometry" />
        </mxCell>
        <mxCell id="GrSWG6mgI-wBd2yAty5X-20" value="&lt;b&gt;Site API (+ other enterprise / domain-specific layered APIs)&lt;/b&gt;" style="rounded=0;whiteSpace=wrap;html=1;" parent="1" vertex="1">
          <mxGeometry x="220" y="312" width="560" height="40" as="geometry" />
        </mxCell>
        <mxCell id="GrSWG6mgI-wBd2yAty5X-21" value="&lt;b&gt;Workflows&lt;/b&gt;" style="rounded=0;whiteSpace=wrap;html=1;" parent="1" vertex="1">
          <mxGeometry x="220" y="262" width="560" height="40" as="geometry" />
        </mxCell>
        <mxCell id="JgdRYH-oE0aUJ6o2ryaF-1" value="&lt;p style=&quot;margin:0px;margin-top:6px;text-align:center;&quot;&gt;&lt;b&gt;Stores Driver&amp;nbsp; &amp;nbsp;&lt;/b&gt;&lt;/p&gt;" style="align=left;overflow=fill;html=1;dropTarget=0;" parent="1" vertex="1">
          <mxGeometry x="510" y="470" width="120" height="30" as="geometry" />
        </mxCell>
        <mxCell id="JgdRYH-oE0aUJ6o2ryaF-2" value="" style="shape=component;jettyWidth=8;jettyHeight=4;" parent="JgdRYH-oE0aUJ6o2ryaF-1" vertex="1">
          <mxGeometry x="1" width="20" height="20" relative="1" as="geometry">
            <mxPoint x="-24" y="4" as="offset" />
          </mxGeometry>
        </mxCell>
      </root>
    </mxGraphModel>
  </diagram>
  <diagram id="n8UHWOIlGRLNToVMnFSv" name="Component Reuse">
    <mxGraphModel dx="1218" dy="909" grid="1" gridSize="10" guides="1" tooltips="1" connect="1" arrows="1" fold="1" page="1" pageScale="1" pageWidth="1169" pageHeight="827" math="0" shadow="0">
      <root>
        <mxCell id="0" />
        <mxCell id="1" parent="0" />
        <mxCell id="F9e7LyyB63PsaBFtVaps-33" value="" style="rounded=0;whiteSpace=wrap;html=1;" parent="1" vertex="1">
          <mxGeometry x="500" y="160" width="140" height="180" as="geometry" />
        </mxCell>
        <mxCell id="F9e7LyyB63PsaBFtVaps-42" value="&lt;div style=&quot;text-align: left;&quot;&gt;&lt;b style=&quot;background-color: initial;&quot;&gt;&amp;nbsp; &amp;nbsp; &amp;nbsp; &amp;nbsp; &amp;nbsp; &amp;nbsp; &amp;nbsp; &amp;nbsp; &amp;nbsp; &amp;nbsp; &amp;nbsp; &amp;nbsp; &amp;nbsp; &amp;nbsp; &amp;nbsp; &amp;nbsp; &amp;nbsp; &amp;nbsp; &amp;nbsp; &amp;nbsp; &amp;nbsp; &amp;nbsp; &amp;nbsp; &amp;nbsp; &amp;nbsp; &amp;nbsp; &amp;nbsp; &amp;nbsp;&amp;nbsp;&lt;/b&gt;&lt;/div&gt;&lt;div style=&quot;text-align: left;&quot;&gt;&lt;b style=&quot;background-color: initial;&quot;&gt;&amp;nbsp; &amp;nbsp; &amp;nbsp; &amp;nbsp; &amp;nbsp; &amp;nbsp; &amp;nbsp; &amp;nbsp; &amp;nbsp; &amp;nbsp; &amp;nbsp; &amp;nbsp; &amp;nbsp; &amp;nbsp; &amp;nbsp; &amp;nbsp; &amp;nbsp; &amp;nbsp; &amp;nbsp; &amp;nbsp; &amp;nbsp; &amp;nbsp; Local lwfm&lt;/b&gt;&lt;/div&gt;&lt;b&gt;&amp;nbsp; &amp;nbsp; &amp;nbsp; &amp;nbsp; &amp;nbsp; &amp;nbsp; &amp;nbsp; &amp;nbsp; &amp;nbsp; &amp;nbsp; &amp;nbsp; &amp;nbsp; &amp;nbsp; &amp;nbsp; &amp;nbsp; &amp;nbsp; &amp;nbsp; &amp;nbsp; &amp;nbsp; &amp;nbsp; &amp;nbsp; &amp;nbsp; @ the &quot;National Lab&quot;&amp;nbsp; &amp;nbsp; &amp;nbsp; &amp;nbsp; &amp;nbsp; &amp;nbsp; &amp;nbsp; &amp;nbsp; &amp;nbsp; &amp;nbsp; &amp;nbsp; &amp;nbsp; &amp;nbsp; &amp;nbsp; &amp;nbsp; &amp;nbsp; &amp;nbsp; &amp;nbsp; &amp;nbsp;&amp;nbsp;&lt;/b&gt;" style="rounded=0;whiteSpace=wrap;html=1;" parent="1" vertex="1">
          <mxGeometry x="500" y="342" width="280" height="40" as="geometry" />
        </mxCell>
        <mxCell id="F9e7LyyB63PsaBFtVaps-2" value="" style="rounded=0;whiteSpace=wrap;html=1;" parent="1" vertex="1">
          <mxGeometry x="650" y="512" width="140" height="78" as="geometry" />
        </mxCell>
        <mxCell id="F9e7LyyB63PsaBFtVaps-3" value="" style="rounded=0;whiteSpace=wrap;html=1;" parent="1" vertex="1">
          <mxGeometry x="510" y="512" width="140" height="78" as="geometry" />
        </mxCell>
        <mxCell id="F9e7LyyB63PsaBFtVaps-4" value="" style="rounded=0;whiteSpace=wrap;html=1;" parent="1" vertex="1">
          <mxGeometry x="370" y="512" width="140" height="78" as="geometry" />
        </mxCell>
        <mxCell id="F9e7LyyB63PsaBFtVaps-30" style="edgeStyle=none;rounded=0;orthogonalLoop=1;jettySize=auto;html=1;exitX=0.5;exitY=0;exitDx=0;exitDy=0;entryX=0.5;entryY=1;entryDx=0;entryDy=0;" parent="1" source="F9e7LyyB63PsaBFtVaps-9" target="F9e7LyyB63PsaBFtVaps-28" edge="1">
          <mxGeometry relative="1" as="geometry" />
        </mxCell>
        <mxCell id="F9e7LyyB63PsaBFtVaps-9" value="&lt;p style=&quot;margin:0px;margin-top:6px;text-align:center;&quot;&gt;&lt;b&gt;Scheduler&lt;/b&gt;&lt;/p&gt;&lt;p style=&quot;margin:0px;margin-top:6px;text-align:center;&quot;&gt;&lt;b&gt;Driver&lt;/b&gt;&lt;/p&gt;" style="align=left;overflow=fill;html=1;dropTarget=0;fillColor=#D4E1F5;" parent="1" vertex="1">
          <mxGeometry x="520" y="540" width="120" height="42" as="geometry" />
        </mxCell>
        <mxCell id="F9e7LyyB63PsaBFtVaps-10" value="" style="shape=component;jettyWidth=8;jettyHeight=4;" parent="F9e7LyyB63PsaBFtVaps-9" vertex="1">
          <mxGeometry x="1" width="20" height="20" relative="1" as="geometry">
            <mxPoint x="-24" y="4" as="offset" />
          </mxGeometry>
        </mxCell>
        <mxCell id="F9e7LyyB63PsaBFtVaps-47" style="edgeStyle=none;rounded=0;orthogonalLoop=1;jettySize=auto;html=1;exitX=0.5;exitY=0;exitDx=0;exitDy=0;entryX=0.5;entryY=1;entryDx=0;entryDy=0;" parent="1" source="F9e7LyyB63PsaBFtVaps-11" target="F9e7LyyB63PsaBFtVaps-45" edge="1">
          <mxGeometry relative="1" as="geometry" />
        </mxCell>
        <mxCell id="F9e7LyyB63PsaBFtVaps-11" value="&lt;p style=&quot;margin:0px;margin-top:6px;text-align:center;&quot;&gt;&lt;b&gt;Auth Driver&amp;nbsp;&lt;/b&gt;&lt;/p&gt;" style="align=left;overflow=fill;html=1;dropTarget=0;" parent="1" vertex="1">
          <mxGeometry x="380" y="542" width="120" height="30" as="geometry" />
        </mxCell>
        <mxCell id="F9e7LyyB63PsaBFtVaps-12" value="" style="shape=component;jettyWidth=8;jettyHeight=4;" parent="F9e7LyyB63PsaBFtVaps-11" vertex="1">
          <mxGeometry x="1" width="20" height="20" relative="1" as="geometry">
            <mxPoint x="-24" y="4" as="offset" />
          </mxGeometry>
        </mxCell>
        <mxCell id="F9e7LyyB63PsaBFtVaps-17" value="File&lt;br&gt;System" style="shape=cylinder3;whiteSpace=wrap;html=1;boundedLbl=1;backgroundOutline=1;size=15;" parent="1" vertex="1">
          <mxGeometry x="820" y="379" width="60" height="70" as="geometry" />
        </mxCell>
        <mxCell id="F9e7LyyB63PsaBFtVaps-18" value="&lt;b&gt;Auth&lt;/b&gt;" style="text;html=1;strokeColor=none;fillColor=none;align=center;verticalAlign=middle;whiteSpace=wrap;rounded=0;" parent="1" vertex="1">
          <mxGeometry x="370" y="510" width="60" height="30" as="geometry" />
        </mxCell>
        <mxCell id="F9e7LyyB63PsaBFtVaps-19" value="&lt;b&gt;Run&lt;/b&gt;" style="text;html=1;strokeColor=none;fillColor=none;align=center;verticalAlign=middle;whiteSpace=wrap;rounded=0;" parent="1" vertex="1">
          <mxGeometry x="510" y="512" width="60" height="30" as="geometry" />
        </mxCell>
        <mxCell id="F9e7LyyB63PsaBFtVaps-20" value="&lt;b&gt;Repo&lt;/b&gt;" style="text;html=1;strokeColor=none;fillColor=none;align=center;verticalAlign=middle;whiteSpace=wrap;rounded=0;" parent="1" vertex="1">
          <mxGeometry x="650" y="512" width="60" height="30" as="geometry" />
        </mxCell>
        <mxCell id="F9e7LyyB63PsaBFtVaps-22" value="&lt;b&gt;&quot;National Lab&quot; Site API&amp;nbsp; &amp;nbsp; &amp;nbsp; &amp;nbsp; &amp;nbsp; &amp;nbsp; &amp;nbsp; &amp;nbsp; &amp;nbsp; &amp;nbsp; &amp;nbsp; &amp;nbsp; &amp;nbsp; &amp;nbsp; &amp;nbsp; &amp;nbsp; &amp;nbsp; &amp;nbsp; &amp;nbsp; &amp;nbsp; &amp;nbsp; &amp;nbsp; &amp;nbsp; &amp;nbsp; &amp;nbsp; &amp;nbsp; &amp;nbsp; &amp;nbsp; &amp;nbsp; &amp;nbsp; &amp;nbsp; &amp;nbsp; &amp;nbsp; &amp;nbsp; &amp;nbsp;&lt;br&gt;e.g. NERSC SFAPI w. lwfm wrapper&amp;nbsp; &amp;nbsp; &amp;nbsp; &amp;nbsp; &amp;nbsp; &amp;nbsp; &amp;nbsp; &amp;nbsp; &amp;nbsp; &amp;nbsp; &amp;nbsp; &amp;nbsp; &amp;nbsp; &amp;nbsp; &amp;nbsp; &amp;nbsp; &amp;nbsp; &amp;nbsp; &amp;nbsp; &amp;nbsp; &amp;nbsp; &amp;nbsp; &amp;nbsp; &amp;nbsp;&amp;nbsp;&lt;/b&gt;" style="rounded=0;whiteSpace=wrap;html=1;" parent="1" vertex="1">
          <mxGeometry x="370" y="592" width="420" height="40" as="geometry" />
        </mxCell>
        <mxCell id="F9e7LyyB63PsaBFtVaps-23" value="&lt;b&gt;Workflows&lt;/b&gt;" style="rounded=0;whiteSpace=wrap;html=1;fillColor=#F8CECC;" parent="1" vertex="1">
          <mxGeometry x="260" y="100" width="90" height="40" as="geometry" />
        </mxCell>
        <mxCell id="F9e7LyyB63PsaBFtVaps-27" style="edgeStyle=orthogonalEdgeStyle;rounded=0;orthogonalLoop=1;jettySize=auto;html=1;exitX=1;exitY=0.5;exitDx=0;exitDy=0;entryX=0.5;entryY=1;entryDx=0;entryDy=0;entryPerimeter=0;" parent="1" source="F9e7LyyB63PsaBFtVaps-24" target="F9e7LyyB63PsaBFtVaps-17" edge="1">
          <mxGeometry relative="1" as="geometry" />
        </mxCell>
        <mxCell id="F9e7LyyB63PsaBFtVaps-24" value="&lt;p style=&quot;margin:0px;margin-top:6px;text-align:center;&quot;&gt;&lt;b&gt;File System&amp;nbsp;&amp;nbsp;&lt;/b&gt;&lt;/p&gt;&lt;p style=&quot;margin:0px;margin-top:6px;text-align:center;&quot;&gt;&lt;b&gt;Stores Driver&amp;nbsp; &amp;nbsp;&lt;/b&gt;&lt;/p&gt;" style="align=left;overflow=fill;html=1;dropTarget=0;fillColor=#FFF2CC;" parent="1" vertex="1">
          <mxGeometry x="660" y="540" width="120" height="42" as="geometry" />
        </mxCell>
        <mxCell id="F9e7LyyB63PsaBFtVaps-25" value="" style="shape=component;jettyWidth=8;jettyHeight=4;" parent="F9e7LyyB63PsaBFtVaps-24" vertex="1">
          <mxGeometry x="1" width="20" height="20" relative="1" as="geometry">
            <mxPoint x="-24" y="4" as="offset" />
          </mxGeometry>
        </mxCell>
        <mxCell id="F9e7LyyB63PsaBFtVaps-31" style="edgeStyle=none;rounded=0;orthogonalLoop=1;jettySize=auto;html=1;exitX=0.583;exitY=1.03;exitDx=0;exitDy=0;entryX=0.583;entryY=-0.054;entryDx=0;entryDy=0;exitPerimeter=0;entryPerimeter=0;" parent="1" source="F9e7LyyB63PsaBFtVaps-28" target="F9e7LyyB63PsaBFtVaps-9" edge="1">
          <mxGeometry relative="1" as="geometry" />
        </mxCell>
        <mxCell id="pGsYouzdeZLk6xS0lwUl-35" style="edgeStyle=none;rounded=0;orthogonalLoop=1;jettySize=auto;html=1;exitX=0.5;exitY=0;exitDx=0;exitDy=0;entryX=0.583;entryY=0.952;entryDx=0;entryDy=0;entryPerimeter=0;" parent="1" source="F9e7LyyB63PsaBFtVaps-28" target="F9e7LyyB63PsaBFtVaps-35" edge="1">
          <mxGeometry relative="1" as="geometry" />
        </mxCell>
        <mxCell id="pGsYouzdeZLk6xS0lwUl-41" style="edgeStyle=orthogonalEdgeStyle;rounded=0;orthogonalLoop=1;jettySize=auto;html=1;exitX=0.25;exitY=0;exitDx=0;exitDy=0;entryX=0.5;entryY=1;entryDx=0;entryDy=0;" parent="1" source="F9e7LyyB63PsaBFtVaps-28" target="pGsYouzdeZLk6xS0lwUl-38" edge="1">
          <mxGeometry relative="1" as="geometry">
            <Array as="points">
              <mxPoint x="550" y="400" />
              <mxPoint x="420" y="400" />
            </Array>
          </mxGeometry>
        </mxCell>
        <mxCell id="F9e7LyyB63PsaBFtVaps-28" value="&lt;p style=&quot;margin:0px;margin-top:6px;text-align:center;&quot;&gt;&lt;b&gt;Lab&#39;s HPC&lt;/b&gt;&lt;/p&gt;&lt;p style=&quot;margin:0px;margin-top:6px;text-align:center;&quot;&gt;&lt;b&gt;Scheduler&lt;/b&gt;&lt;/p&gt;" style="align=left;overflow=fill;html=1;dropTarget=0;" parent="1" vertex="1">
          <mxGeometry x="520" y="428" width="120" height="42" as="geometry" />
        </mxCell>
        <mxCell id="F9e7LyyB63PsaBFtVaps-29" value="" style="shape=component;jettyWidth=8;jettyHeight=4;" parent="F9e7LyyB63PsaBFtVaps-28" vertex="1">
          <mxGeometry x="1" width="20" height="20" relative="1" as="geometry">
            <mxPoint x="-24" y="4" as="offset" />
          </mxGeometry>
        </mxCell>
        <mxCell id="F9e7LyyB63PsaBFtVaps-32" value="" style="rounded=0;whiteSpace=wrap;html=1;" parent="1" vertex="1">
          <mxGeometry x="640" y="160" width="140" height="180" as="geometry" />
        </mxCell>
        <mxCell id="pGsYouzdeZLk6xS0lwUl-32" style="edgeStyle=none;rounded=0;orthogonalLoop=1;jettySize=auto;html=1;exitX=0.5;exitY=1;exitDx=0;exitDy=0;entryX=0.425;entryY=-0.024;entryDx=0;entryDy=0;entryPerimeter=0;" parent="1" source="F9e7LyyB63PsaBFtVaps-35" target="F9e7LyyB63PsaBFtVaps-28" edge="1">
          <mxGeometry relative="1" as="geometry" />
        </mxCell>
        <mxCell id="F9e7LyyB63PsaBFtVaps-35" value="&lt;p style=&quot;margin:0px;margin-top:6px;text-align:center;&quot;&gt;&lt;b&gt;Scheduler&lt;/b&gt;&lt;/p&gt;&lt;p style=&quot;margin:0px;margin-top:6px;text-align:center;&quot;&gt;&lt;b&gt;Driver&lt;/b&gt;&lt;/p&gt;" style="align=left;overflow=fill;html=1;dropTarget=0;fillColor=#D4E1F5;" parent="1" vertex="1">
          <mxGeometry x="510" y="290" width="120" height="42" as="geometry" />
        </mxCell>
        <mxCell id="F9e7LyyB63PsaBFtVaps-36" value="" style="shape=component;jettyWidth=8;jettyHeight=4;" parent="F9e7LyyB63PsaBFtVaps-35" vertex="1">
          <mxGeometry x="1" width="20" height="20" relative="1" as="geometry">
            <mxPoint x="-24" y="4" as="offset" />
          </mxGeometry>
        </mxCell>
        <mxCell id="F9e7LyyB63PsaBFtVaps-40" value="&lt;b&gt;Run&lt;/b&gt;" style="text;html=1;strokeColor=none;fillColor=none;align=center;verticalAlign=middle;whiteSpace=wrap;rounded=0;" parent="1" vertex="1">
          <mxGeometry x="490" y="160" width="60" height="30" as="geometry" />
        </mxCell>
        <mxCell id="F9e7LyyB63PsaBFtVaps-41" value="&lt;b&gt;Repo&lt;/b&gt;" style="text;html=1;strokeColor=none;fillColor=none;align=center;verticalAlign=middle;whiteSpace=wrap;rounded=0;" parent="1" vertex="1">
          <mxGeometry x="630" y="160" width="60" height="30" as="geometry" />
        </mxCell>
        <mxCell id="pGsYouzdeZLk6xS0lwUl-31" style="edgeStyle=orthogonalEdgeStyle;rounded=0;orthogonalLoop=1;jettySize=auto;html=1;exitX=1;exitY=0.5;exitDx=0;exitDy=0;" parent="1" source="F9e7LyyB63PsaBFtVaps-43" edge="1">
          <mxGeometry relative="1" as="geometry">
            <mxPoint x="850" y="380" as="targetPoint" />
          </mxGeometry>
        </mxCell>
        <mxCell id="F9e7LyyB63PsaBFtVaps-43" value="&lt;p style=&quot;margin:0px;margin-top:6px;text-align:center;&quot;&gt;&lt;b&gt;File System&amp;nbsp;&amp;nbsp;&lt;/b&gt;&lt;/p&gt;&lt;p style=&quot;margin:0px;margin-top:6px;text-align:center;&quot;&gt;&lt;b&gt;Stores Driver&amp;nbsp; &amp;nbsp;&lt;/b&gt;&lt;/p&gt;" style="align=left;overflow=fill;html=1;dropTarget=0;fillColor=#FFF2CC;" parent="1" vertex="1">
          <mxGeometry x="650" y="290" width="120" height="42" as="geometry" />
        </mxCell>
        <mxCell id="F9e7LyyB63PsaBFtVaps-44" value="" style="shape=component;jettyWidth=8;jettyHeight=4;" parent="F9e7LyyB63PsaBFtVaps-43" vertex="1">
          <mxGeometry x="1" width="20" height="20" relative="1" as="geometry">
            <mxPoint x="-24" y="4" as="offset" />
          </mxGeometry>
        </mxCell>
        <mxCell id="F9e7LyyB63PsaBFtVaps-45" value="&lt;p style=&quot;margin:0px;margin-top:6px;text-align:center;&quot;&gt;&lt;b&gt;Lab&#39;s&lt;/b&gt;&lt;/p&gt;&lt;p style=&quot;margin:0px;margin-top:6px;text-align:center;&quot;&gt;&lt;b&gt;Auth&lt;/b&gt;&lt;/p&gt;" style="align=left;overflow=fill;html=1;dropTarget=0;" parent="1" vertex="1">
          <mxGeometry x="380" y="428" width="120" height="42" as="geometry" />
        </mxCell>
        <mxCell id="F9e7LyyB63PsaBFtVaps-46" value="" style="shape=component;jettyWidth=8;jettyHeight=4;" parent="F9e7LyyB63PsaBFtVaps-45" vertex="1">
          <mxGeometry x="1" width="20" height="20" relative="1" as="geometry">
            <mxPoint x="-24" y="4" as="offset" />
          </mxGeometry>
        </mxCell>
        <mxCell id="pGsYouzdeZLk6xS0lwUl-5" value="&lt;p style=&quot;margin:0px;margin-top:6px;text-align:center;&quot;&gt;&lt;b&gt;MetaRepo&amp;nbsp;&lt;/b&gt;&lt;/p&gt;" style="align=left;overflow=fill;html=1;dropTarget=0;fillColor=#FFE599;" parent="1" vertex="1">
          <mxGeometry x="650" y="250" width="120" height="30" as="geometry" />
        </mxCell>
        <mxCell id="pGsYouzdeZLk6xS0lwUl-6" value="" style="shape=component;jettyWidth=8;jettyHeight=4;" parent="pGsYouzdeZLk6xS0lwUl-5" vertex="1">
          <mxGeometry x="1" width="20" height="20" relative="1" as="geometry">
            <mxPoint x="-24" y="4" as="offset" />
          </mxGeometry>
        </mxCell>
        <mxCell id="pGsYouzdeZLk6xS0lwUl-7" value="&lt;p style=&quot;margin:0px;margin-top:6px;text-align:center;&quot;&gt;&lt;b&gt;RunRepo&lt;/b&gt;&lt;/p&gt;" style="align=left;overflow=fill;html=1;dropTarget=0;fillColor=#FFD966;" parent="1" vertex="1">
          <mxGeometry x="650" y="210" width="120" height="30" as="geometry" />
        </mxCell>
        <mxCell id="pGsYouzdeZLk6xS0lwUl-8" value="" style="shape=component;jettyWidth=8;jettyHeight=4;" parent="pGsYouzdeZLk6xS0lwUl-7" vertex="1">
          <mxGeometry x="1" width="20" height="20" relative="1" as="geometry">
            <mxPoint x="-24" y="4" as="offset" />
          </mxGeometry>
        </mxCell>
        <mxCell id="pGsYouzdeZLk6xS0lwUl-36" value="&lt;p style=&quot;margin:0px;margin-top:6px;text-align:center;&quot;&gt;&lt;b&gt;Local Runtime&amp;nbsp; &amp;nbsp; &amp;nbsp;&amp;nbsp;&lt;/b&gt;&lt;/p&gt;&lt;p style=&quot;margin:0px;margin-top:6px;text-align:center;&quot;&gt;&lt;b&gt;Driver&lt;/b&gt;&lt;/p&gt;" style="align=left;overflow=fill;html=1;dropTarget=0;fillColor=#A9C4EB;" parent="1" vertex="1">
          <mxGeometry x="510" y="238" width="120" height="42" as="geometry" />
        </mxCell>
        <mxCell id="pGsYouzdeZLk6xS0lwUl-37" value="" style="shape=component;jettyWidth=8;jettyHeight=4;" parent="pGsYouzdeZLk6xS0lwUl-36" vertex="1">
          <mxGeometry x="1" width="20" height="20" relative="1" as="geometry">
            <mxPoint x="-24" y="4" as="offset" />
          </mxGeometry>
        </mxCell>
        <mxCell id="pGsYouzdeZLk6xS0lwUl-39" style="edgeStyle=orthogonalEdgeStyle;rounded=0;orthogonalLoop=1;jettySize=auto;html=1;exitX=1;exitY=0.5;exitDx=0;exitDy=0;entryX=0.5;entryY=0;entryDx=0;entryDy=0;" parent="1" source="pGsYouzdeZLk6xS0lwUl-38" target="F9e7LyyB63PsaBFtVaps-32" edge="1">
          <mxGeometry relative="1" as="geometry" />
        </mxCell>
        <mxCell id="pGsYouzdeZLk6xS0lwUl-40" style="edgeStyle=orthogonalEdgeStyle;rounded=0;orthogonalLoop=1;jettySize=auto;html=1;exitX=1;exitY=0.75;exitDx=0;exitDy=0;entryX=0.5;entryY=0;entryDx=0;entryDy=0;" parent="1" source="pGsYouzdeZLk6xS0lwUl-38" target="F9e7LyyB63PsaBFtVaps-33" edge="1">
          <mxGeometry relative="1" as="geometry">
            <Array as="points">
              <mxPoint x="400" y="130" />
              <mxPoint x="570" y="130" />
            </Array>
          </mxGeometry>
        </mxCell>
        <mxCell id="pGsYouzdeZLk6xS0lwUl-38" value="HPC Job w.&amp;nbsp;&lt;br&gt;type 1 &lt;br&gt;inC2 controller" style="shape=process;whiteSpace=wrap;html=1;backgroundOutline=1;fillColor=#ffffff;" parent="1" vertex="1">
          <mxGeometry x="360" y="100" width="120" height="60" as="geometry" />
        </mxCell>
        <mxCell id="pGsYouzdeZLk6xS0lwUl-42" value="&lt;b&gt;Workflows&lt;/b&gt;" style="rounded=0;whiteSpace=wrap;html=1;fillColor=#F8CECC;" parent="1" vertex="1">
          <mxGeometry x="790" y="180" width="90" height="40" as="geometry" />
        </mxCell>
        <mxCell id="pGsYouzdeZLk6xS0lwUl-44" value="" style="rounded=0;whiteSpace=wrap;html=1;" parent="1" vertex="1">
          <mxGeometry x="512.5" y="670" width="140" height="160" as="geometry" />
        </mxCell>
        <mxCell id="pGsYouzdeZLk6xS0lwUl-45" value="&lt;div style=&quot;text-align: left;&quot;&gt;&lt;b style=&quot;background-color: initial;&quot;&gt;&amp;nbsp; &amp;nbsp; &amp;nbsp; &amp;nbsp; &amp;nbsp; &amp;nbsp; &amp;nbsp; &amp;nbsp; &amp;nbsp; &amp;nbsp; &amp;nbsp; &amp;nbsp; &amp;nbsp; &amp;nbsp; &amp;nbsp; &amp;nbsp; &amp;nbsp; &amp;nbsp; &amp;nbsp; &amp;nbsp; &amp;nbsp; &amp;nbsp; &amp;nbsp; &amp;nbsp; &amp;nbsp; &amp;nbsp; &amp;nbsp; &amp;nbsp;&amp;nbsp;&lt;/b&gt;&lt;/div&gt;&lt;div style=&quot;text-align: left;&quot;&gt;&lt;b style=&quot;background-color: initial;&quot;&gt;&amp;nbsp; &amp;nbsp; &amp;nbsp; &amp;nbsp; &amp;nbsp; &amp;nbsp; &amp;nbsp; &amp;nbsp; &amp;nbsp; &amp;nbsp; &amp;nbsp; &amp;nbsp; &amp;nbsp; &amp;nbsp; &amp;nbsp; &amp;nbsp; &amp;nbsp; &amp;nbsp; &amp;nbsp; &amp;nbsp; &amp;nbsp; &amp;nbsp; Local lwfm&lt;/b&gt;&lt;/div&gt;&lt;b&gt;&amp;nbsp; &amp;nbsp; &amp;nbsp; &amp;nbsp; &amp;nbsp; &amp;nbsp; &amp;nbsp; &amp;nbsp; &amp;nbsp; &amp;nbsp; &amp;nbsp; &amp;nbsp; &amp;nbsp; &amp;nbsp; &amp;nbsp; &amp;nbsp; &amp;nbsp; &amp;nbsp; &amp;nbsp; &amp;nbsp; &amp;nbsp; &amp;nbsp; @ researcher home&amp;nbsp; &amp;nbsp; &amp;nbsp; &amp;nbsp; &amp;nbsp; &amp;nbsp; &amp;nbsp; &amp;nbsp; &amp;nbsp; &amp;nbsp; &amp;nbsp; &amp;nbsp; &amp;nbsp; &amp;nbsp; &amp;nbsp; &amp;nbsp; &amp;nbsp; &amp;nbsp; &amp;nbsp;&amp;nbsp;&lt;/b&gt;" style="rounded=0;whiteSpace=wrap;html=1;" parent="1" vertex="1">
          <mxGeometry x="512.5" y="832" width="280" height="40" as="geometry" />
        </mxCell>
        <mxCell id="pGsYouzdeZLk6xS0lwUl-46" value="" style="rounded=0;whiteSpace=wrap;html=1;" parent="1" vertex="1">
          <mxGeometry x="652.5" y="670" width="140" height="160" as="geometry" />
        </mxCell>
        <mxCell id="pGsYouzdeZLk6xS0lwUl-49" value="&lt;b&gt;Run&lt;/b&gt;" style="text;html=1;strokeColor=none;fillColor=none;align=center;verticalAlign=middle;whiteSpace=wrap;rounded=0;" parent="1" vertex="1">
          <mxGeometry x="502.5" y="670" width="60" height="30" as="geometry" />
        </mxCell>
        <mxCell id="pGsYouzdeZLk6xS0lwUl-50" value="&lt;b&gt;Repo&lt;/b&gt;" style="text;html=1;strokeColor=none;fillColor=none;align=center;verticalAlign=middle;whiteSpace=wrap;rounded=0;" parent="1" vertex="1">
          <mxGeometry x="647.5" y="670" width="60" height="30" as="geometry" />
        </mxCell>
        <mxCell id="pGsYouzdeZLk6xS0lwUl-69" style="edgeStyle=none;rounded=0;orthogonalLoop=1;jettySize=auto;html=1;exitX=1;exitY=0.5;exitDx=0;exitDy=0;entryX=0;entryY=0.5;entryDx=0;entryDy=0;entryPerimeter=0;" parent="1" source="pGsYouzdeZLk6xS0lwUl-51" target="pGsYouzdeZLk6xS0lwUl-68" edge="1">
          <mxGeometry relative="1" as="geometry" />
        </mxCell>
        <mxCell id="pGsYouzdeZLk6xS0lwUl-51" value="&lt;p style=&quot;margin:0px;margin-top:6px;text-align:center;&quot;&gt;&lt;b&gt;File System&amp;nbsp;&amp;nbsp;&lt;/b&gt;&lt;/p&gt;&lt;p style=&quot;margin:0px;margin-top:6px;text-align:center;&quot;&gt;&lt;b&gt;Stores Driver&amp;nbsp; &amp;nbsp;&lt;/b&gt;&lt;/p&gt;" style="align=left;overflow=fill;html=1;dropTarget=0;fillColor=#FFF2CC;" parent="1" vertex="1">
          <mxGeometry x="662.5" y="780" width="120" height="42" as="geometry" />
        </mxCell>
        <mxCell id="pGsYouzdeZLk6xS0lwUl-52" value="" style="shape=component;jettyWidth=8;jettyHeight=4;" parent="pGsYouzdeZLk6xS0lwUl-51" vertex="1">
          <mxGeometry x="1" width="20" height="20" relative="1" as="geometry">
            <mxPoint x="-24" y="4" as="offset" />
          </mxGeometry>
        </mxCell>
        <mxCell id="pGsYouzdeZLk6xS0lwUl-53" value="&lt;p style=&quot;margin:0px;margin-top:6px;text-align:center;&quot;&gt;&lt;b&gt;MetaRepo&amp;nbsp;&lt;/b&gt;&lt;/p&gt;" style="align=left;overflow=fill;html=1;dropTarget=0;fillColor=#FFE599;" parent="1" vertex="1">
          <mxGeometry x="662.5" y="740" width="120" height="30" as="geometry" />
        </mxCell>
        <mxCell id="pGsYouzdeZLk6xS0lwUl-54" value="" style="shape=component;jettyWidth=8;jettyHeight=4;" parent="pGsYouzdeZLk6xS0lwUl-53" vertex="1">
          <mxGeometry x="1" width="20" height="20" relative="1" as="geometry">
            <mxPoint x="-24" y="4" as="offset" />
          </mxGeometry>
        </mxCell>
        <mxCell id="pGsYouzdeZLk6xS0lwUl-55" value="&lt;p style=&quot;margin:0px;margin-top:6px;text-align:center;&quot;&gt;&lt;b&gt;RunRepo&lt;/b&gt;&lt;/p&gt;" style="align=left;overflow=fill;html=1;dropTarget=0;fillColor=#FFD966;" parent="1" vertex="1">
          <mxGeometry x="662.5" y="700" width="120" height="30" as="geometry" />
        </mxCell>
        <mxCell id="pGsYouzdeZLk6xS0lwUl-56" value="" style="shape=component;jettyWidth=8;jettyHeight=4;" parent="pGsYouzdeZLk6xS0lwUl-55" vertex="1">
          <mxGeometry x="1" width="20" height="20" relative="1" as="geometry">
            <mxPoint x="-24" y="4" as="offset" />
          </mxGeometry>
        </mxCell>
        <mxCell id="pGsYouzdeZLk6xS0lwUl-57" value="&lt;p style=&quot;margin:0px;margin-top:6px;text-align:center;&quot;&gt;&lt;b&gt;Local Runtime&amp;nbsp; &amp;nbsp; &amp;nbsp;&amp;nbsp;&lt;/b&gt;&lt;/p&gt;&lt;p style=&quot;margin:0px;margin-top:6px;text-align:center;&quot;&gt;&lt;b&gt;Driver&lt;/b&gt;&lt;/p&gt;" style="align=left;overflow=fill;html=1;dropTarget=0;fillColor=#A9C4EB;" parent="1" vertex="1">
          <mxGeometry x="522.5" y="728" width="120" height="42" as="geometry" />
        </mxCell>
        <mxCell id="pGsYouzdeZLk6xS0lwUl-58" value="" style="shape=component;jettyWidth=8;jettyHeight=4;" parent="pGsYouzdeZLk6xS0lwUl-57" vertex="1">
          <mxGeometry x="1" width="20" height="20" relative="1" as="geometry">
            <mxPoint x="-24" y="4" as="offset" />
          </mxGeometry>
        </mxCell>
        <mxCell id="pGsYouzdeZLk6xS0lwUl-60" style="edgeStyle=none;rounded=0;orthogonalLoop=1;jettySize=auto;html=1;exitX=0;exitY=0.5;exitDx=0;exitDy=0;entryX=0.964;entryY=0.125;entryDx=0;entryDy=0;entryPerimeter=0;" parent="1" source="pGsYouzdeZLk6xS0lwUl-59" target="pGsYouzdeZLk6xS0lwUl-46" edge="1">
          <mxGeometry relative="1" as="geometry" />
        </mxCell>
        <mxCell id="pGsYouzdeZLk6xS0lwUl-65" style="edgeStyle=orthogonalEdgeStyle;rounded=0;orthogonalLoop=1;jettySize=auto;html=1;exitX=0.5;exitY=0;exitDx=0;exitDy=0;entryX=1;entryY=0.5;entryDx=0;entryDy=0;" parent="1" source="pGsYouzdeZLk6xS0lwUl-59" target="F9e7LyyB63PsaBFtVaps-22" edge="1">
          <mxGeometry relative="1" as="geometry" />
        </mxCell>
        <mxCell id="pGsYouzdeZLk6xS0lwUl-59" value="&lt;b&gt;Workflows&lt;/b&gt;" style="rounded=0;whiteSpace=wrap;html=1;fillColor=#F8CECC;" parent="1" vertex="1">
          <mxGeometry x="827.5" y="670" width="90" height="40" as="geometry" />
        </mxCell>
        <mxCell id="pGsYouzdeZLk6xS0lwUl-63" value="System Boundary" style="text;html=1;strokeColor=none;fillColor=none;align=left;verticalAlign=middle;whiteSpace=wrap;rounded=0;" parent="1" vertex="1">
          <mxGeometry x="930" y="470" width="60" height="30" as="geometry" />
        </mxCell>
        <mxCell id="pGsYouzdeZLk6xS0lwUl-64" value="" style="shape=link;html=1;rounded=0;" parent="1" edge="1">
          <mxGeometry width="100" relative="1" as="geometry">
            <mxPoint x="260" y="490" as="sourcePoint" />
            <mxPoint x="920" y="490" as="targetPoint" />
          </mxGeometry>
        </mxCell>
        <mxCell id="pGsYouzdeZLk6xS0lwUl-67" value="&lt;h1&gt;Local Workflows&lt;/h1&gt;&lt;p&gt;Using the lwfm type 3 tooling, locally executed workflows track their data, and can push data to and launch workflows on a remote system.&lt;/p&gt;&lt;p&gt;Note that lwfm components are permitted to use each other, such as an enterprise MetaRepo implementation using an enterprise Auth to ensure tenancy segregation.&amp;nbsp; Any implementation which meets the interface is permitted, of both the Auth and Repo.MetaRepo components.&amp;nbsp; lwfm ships with a robust, multi-site, and tenant-aware MetaRepo implementation.&amp;nbsp; &amp;nbsp;&amp;nbsp;&lt;/p&gt;&lt;p&gt;&lt;br&gt;&lt;/p&gt;" style="text;html=1;strokeColor=none;fillColor=none;spacing=5;spacingTop=-20;whiteSpace=wrap;overflow=hidden;rounded=0;" parent="1" vertex="1">
          <mxGeometry x="190" y="662.5" width="290" height="217.5" as="geometry" />
        </mxCell>
        <mxCell id="pGsYouzdeZLk6xS0lwUl-68" value="File&lt;br&gt;System" style="shape=cylinder3;whiteSpace=wrap;html=1;boundedLbl=1;backgroundOutline=1;size=15;" parent="1" vertex="1">
          <mxGeometry x="827.5" y="766" width="60" height="70" as="geometry" />
        </mxCell>
        <mxCell id="pGsYouzdeZLk6xS0lwUl-70" value="&lt;h1&gt;In-Situ Workflows&lt;/h1&gt;&lt;p&gt;Using the inC2 type 1 tooling, an HPC job can track its data, execute sub-jobs, and interact with its own HPC scheduler.&amp;nbsp;&amp;nbsp;&lt;/p&gt;" style="text;html=1;strokeColor=none;fillColor=none;spacing=5;spacingTop=-20;whiteSpace=wrap;overflow=hidden;rounded=0;" parent="1" vertex="1">
          <mxGeometry x="100" y="185" width="290" height="105" as="geometry" />
        </mxCell>
        <mxCell id="pGsYouzdeZLk6xS0lwUl-71" value="&lt;h1&gt;Remote Workflows&lt;/h1&gt;&lt;p&gt;Entire workflows involving multiple HPC jobs can be executed and their data tracked.&lt;/p&gt;" style="text;html=1;strokeColor=none;fillColor=none;spacing=5;spacingTop=-20;whiteSpace=wrap;overflow=hidden;rounded=0;" parent="1" vertex="1">
          <mxGeometry x="879" y="240" width="290" height="105" as="geometry" />
        </mxCell>
        <mxCell id="pGsYouzdeZLk6xS0lwUl-72" value="&lt;p style=&quot;margin:0px;margin-top:6px;text-align:center;&quot;&gt;&lt;b&gt;Event&amp;nbsp;&lt;/b&gt;&lt;/p&gt;&lt;p style=&quot;margin:0px;margin-top:6px;text-align:center;&quot;&gt;&lt;b&gt;Handler&lt;/b&gt;&lt;/p&gt;" style="align=left;overflow=fill;html=1;dropTarget=0;fillColor=#7EA6E0;" parent="1" vertex="1">
          <mxGeometry x="522.5" y="780" width="120" height="42" as="geometry" />
        </mxCell>
        <mxCell id="pGsYouzdeZLk6xS0lwUl-73" value="" style="shape=component;jettyWidth=8;jettyHeight=4;" parent="pGsYouzdeZLk6xS0lwUl-72" vertex="1">
          <mxGeometry x="1" width="20" height="20" relative="1" as="geometry">
            <mxPoint x="-24" y="4" as="offset" />
          </mxGeometry>
        </mxCell>
        <mxCell id="pGsYouzdeZLk6xS0lwUl-74" value="&lt;p style=&quot;margin:0px;margin-top:6px;text-align:center;&quot;&gt;&lt;b&gt;Event&amp;nbsp;&lt;/b&gt;&lt;/p&gt;&lt;p style=&quot;margin:0px;margin-top:6px;text-align:center;&quot;&gt;&lt;b&gt;Handler&lt;/b&gt;&lt;/p&gt;" style="align=left;overflow=fill;html=1;dropTarget=0;fillColor=#7EA6E0;" parent="1" vertex="1">
          <mxGeometry x="510" y="185" width="120" height="42" as="geometry" />
        </mxCell>
        <mxCell id="pGsYouzdeZLk6xS0lwUl-75" value="" style="shape=component;jettyWidth=8;jettyHeight=4;" parent="pGsYouzdeZLk6xS0lwUl-74" vertex="1">
          <mxGeometry x="1" width="20" height="20" relative="1" as="geometry">
            <mxPoint x="-24" y="4" as="offset" />
          </mxGeometry>
        </mxCell>
      </root>
    </mxGraphModel>
  </diagram>
  <diagram id="-NXG7dFmivCh2r9VfYns" name="DT4D type 2">
    <mxGraphModel dx="1218" dy="909" grid="1" gridSize="10" guides="1" tooltips="1" connect="1" arrows="1" fold="1" page="1" pageScale="1" pageWidth="1169" pageHeight="827" math="0" shadow="0">
      <root>
        <mxCell id="0" />
        <mxCell id="1" parent="0" />
        <mxCell id="oJavIetrVoyeT8s_AKxH-1" value="&amp;nbsp; &amp;nbsp; &amp;nbsp; &amp;nbsp; &amp;nbsp; &amp;nbsp; &amp;nbsp; &amp;nbsp; &amp;nbsp; &amp;nbsp; &amp;nbsp; &amp;nbsp; &amp;nbsp; &amp;nbsp; &amp;nbsp; Local node" style="verticalAlign=top;align=left;spacingTop=8;spacingLeft=2;spacingRight=12;shape=cube;size=10;direction=south;fontStyle=2;html=1;" parent="1" vertex="1">
          <mxGeometry x="665" y="230" width="180" height="110" as="geometry" />
        </mxCell>
        <mxCell id="oJavIetrVoyeT8s_AKxH-2" value="GE &#xa;IDM" style="shape=module;align=left;spacingLeft=20;align=center;verticalAlign=top;" parent="1" vertex="1">
          <mxGeometry x="725" y="510" width="100" height="50" as="geometry" />
        </mxCell>
        <mxCell id="oJavIetrVoyeT8s_AKxH-3" value="&lt;&lt;rest&gt;&gt;&#xa;admin-svc" style="shape=module;align=left;spacingLeft=20;align=center;verticalAlign=top;" parent="1" vertex="1">
          <mxGeometry x="725" y="420" width="100" height="50" as="geometry" />
        </mxCell>
        <mxCell id="oJavIetrVoyeT8s_AKxH-4" value="&amp;nbsp; &amp;nbsp; &amp;nbsp; &amp;nbsp;System or Tenant node" style="verticalAlign=top;align=left;spacingTop=8;spacingLeft=2;spacingRight=12;shape=cube;size=10;direction=south;fontStyle=2;html=1;" parent="1" vertex="1">
          <mxGeometry x="485" y="230" width="170" height="110" as="geometry" />
        </mxCell>
        <mxCell id="oJavIetrVoyeT8s_AKxH-5" value="&lt;&lt;rest&gt;&gt;&#xa;RepoSvc&#xa;RunSvc" style="shape=module;align=left;spacingLeft=20;align=center;verticalAlign=top;" parent="1" vertex="1">
          <mxGeometry x="615" y="420" width="100" height="50" as="geometry" />
        </mxCell>
        <mxCell id="oJavIetrVoyeT8s_AKxH-6" value="&lt;&lt;webapp&gt;&gt;&#xa;dt4d-gui" style="shape=module;align=left;spacingLeft=20;align=center;verticalAlign=top;" parent="1" vertex="1">
          <mxGeometry x="725" y="270" width="100" height="50" as="geometry" />
        </mxCell>
        <mxCell id="oJavIetrVoyeT8s_AKxH-7" value="&lt;&lt;sdk&gt;&gt;&#xa;PyDT4D" style="shape=module;align=left;spacingLeft=20;align=center;verticalAlign=top;" parent="1" vertex="1">
          <mxGeometry x="615" y="270" width="100" height="50" as="geometry" />
        </mxCell>
        <mxCell id="oJavIetrVoyeT8s_AKxH-8" value="&lt;&lt;listener&gt;&gt;&#xa;Runner" style="shape=module;align=left;spacingLeft=20;align=center;verticalAlign=top;" parent="1" vertex="1">
          <mxGeometry x="495" y="270" width="100" height="50" as="geometry" />
        </mxCell>
        <mxCell id="oJavIetrVoyeT8s_AKxH-9" value="" style="shape=link;html=1;rounded=0;" parent="1" edge="1">
          <mxGeometry width="100" relative="1" as="geometry">
            <mxPoint x="295" y="370" as="sourcePoint" />
            <mxPoint x="595" y="370" as="targetPoint" />
          </mxGeometry>
        </mxCell>
        <mxCell id="oJavIetrVoyeT8s_AKxH-10" value="Message Bus" style="edgeLabel;html=1;align=center;verticalAlign=middle;resizable=0;points=[];" parent="oJavIetrVoyeT8s_AKxH-9" vertex="1" connectable="0">
          <mxGeometry x="0.7986" y="2" relative="1" as="geometry">
            <mxPoint x="-240" y="-8" as="offset" />
          </mxGeometry>
        </mxCell>
        <mxCell id="oJavIetrVoyeT8s_AKxH-11" value="&lt;&lt;listener&gt;&gt;&#xa;notify" style="shape=module;align=left;spacingLeft=20;align=center;verticalAlign=top;" parent="1" vertex="1">
          <mxGeometry x="285" y="420" width="100" height="50" as="geometry" />
        </mxCell>
        <mxCell id="oJavIetrVoyeT8s_AKxH-12" value="&lt;&lt;listener&gt;&gt;&#xa;Registrar" style="shape=module;align=left;spacingLeft=20;align=center;verticalAlign=top;" parent="1" vertex="1">
          <mxGeometry x="395" y="420" width="100" height="50" as="geometry" />
        </mxCell>
        <mxCell id="oJavIetrVoyeT8s_AKxH-13" value="&lt;&lt;listener&gt;&gt;&#xa;status" style="shape=module;align=left;spacingLeft=20;align=center;verticalAlign=top;" parent="1" vertex="1">
          <mxGeometry x="505" y="420" width="100" height="50" as="geometry" />
        </mxCell>
        <mxCell id="oJavIetrVoyeT8s_AKxH-14" value="S3&#xa;&quot;SimRepo&quot;&#xa;&quot;ToolRepo&quot;" style="shape=module;align=left;spacingLeft=20;align=center;verticalAlign=top;" parent="1" vertex="1">
          <mxGeometry x="615" y="510" width="100" height="50" as="geometry" />
        </mxCell>
        <mxCell id="oJavIetrVoyeT8s_AKxH-15" value="&#xa;Postgres" style="shape=module;align=left;spacingLeft=20;align=center;verticalAlign=top;" parent="1" vertex="1">
          <mxGeometry x="395" y="510" width="100" height="50" as="geometry" />
        </mxCell>
        <mxCell id="oJavIetrVoyeT8s_AKxH-16" value="Elastic&#xa;&quot;MetaRepo&quot;&#xa;&quot;RunRepo&quot;" style="shape=module;align=left;spacingLeft=20;align=center;verticalAlign=top;" parent="1" vertex="1">
          <mxGeometry x="505" y="510" width="100" height="50" as="geometry" />
        </mxCell>
        <mxCell id="oJavIetrVoyeT8s_AKxH-17" value="GE &#xa;SMTP" style="shape=module;align=left;spacingLeft=20;align=center;verticalAlign=top;" parent="1" vertex="1">
          <mxGeometry x="285" y="510" width="100" height="50" as="geometry" />
        </mxCell>
        <mxCell id="oJavIetrVoyeT8s_AKxH-18" value="&lt;&lt;listener&gt;&gt;&#xa;GE HPC &quot;HAL&quot;" style="shape=module;align=left;spacingLeft=20;align=center;verticalAlign=top;" parent="1" vertex="1">
          <mxGeometry x="335" y="270" width="120" height="51" as="geometry" />
        </mxCell>
        <mxCell id="oJavIetrVoyeT8s_AKxH-19" value="" style="endArrow=classic;html=1;rounded=0;exitX=0.5;exitY=1;exitDx=0;exitDy=0;entryX=0.5;entryY=0;entryDx=0;entryDy=0;" parent="1" edge="1">
          <mxGeometry width="50" height="50" relative="1" as="geometry">
            <mxPoint x="645" y="470" as="sourcePoint" />
            <mxPoint x="645" y="510" as="targetPoint" />
          </mxGeometry>
        </mxCell>
        <mxCell id="oJavIetrVoyeT8s_AKxH-20" value="" style="endArrow=classic;html=1;rounded=0;exitX=0.5;exitY=1;exitDx=0;exitDy=0;entryX=0.5;entryY=0;entryDx=0;entryDy=0;" parent="1" edge="1">
          <mxGeometry width="50" height="50" relative="1" as="geometry">
            <mxPoint x="535" y="470" as="sourcePoint" />
            <mxPoint x="535" y="510" as="targetPoint" />
          </mxGeometry>
        </mxCell>
        <mxCell id="oJavIetrVoyeT8s_AKxH-21" value="" style="endArrow=classic;html=1;rounded=0;exitX=0.25;exitY=1;exitDx=0;exitDy=0;entryX=0.9;entryY=0;entryDx=0;entryDy=0;entryPerimeter=0;" parent="1" source="oJavIetrVoyeT8s_AKxH-5" target="oJavIetrVoyeT8s_AKxH-16" edge="1">
          <mxGeometry width="50" height="50" relative="1" as="geometry">
            <mxPoint x="655" y="470" as="sourcePoint" />
            <mxPoint x="655" y="510" as="targetPoint" />
          </mxGeometry>
        </mxCell>
        <mxCell id="oJavIetrVoyeT8s_AKxH-22" value="" style="endArrow=classic;html=1;rounded=0;exitX=0.5;exitY=1;exitDx=0;exitDy=0;entryX=0.5;entryY=0;entryDx=0;entryDy=0;" parent="1" edge="1">
          <mxGeometry width="50" height="50" relative="1" as="geometry">
            <mxPoint x="425" y="470" as="sourcePoint" />
            <mxPoint x="425" y="510" as="targetPoint" />
          </mxGeometry>
        </mxCell>
        <mxCell id="oJavIetrVoyeT8s_AKxH-23" value="" style="endArrow=classic;html=1;rounded=0;exitX=0.5;exitY=1;exitDx=0;exitDy=0;entryX=0.5;entryY=0;entryDx=0;entryDy=0;" parent="1" edge="1">
          <mxGeometry width="50" height="50" relative="1" as="geometry">
            <mxPoint x="315" y="470" as="sourcePoint" />
            <mxPoint x="315" y="510" as="targetPoint" />
          </mxGeometry>
        </mxCell>
        <mxCell id="oJavIetrVoyeT8s_AKxH-24" value="" style="endArrow=classic;html=1;rounded=0;exitX=0.5;exitY=1;exitDx=0;exitDy=0;entryX=0.5;entryY=0;entryDx=0;entryDy=0;" parent="1" edge="1">
          <mxGeometry width="50" height="50" relative="1" as="geometry">
            <mxPoint x="755" y="470" as="sourcePoint" />
            <mxPoint x="755" y="510" as="targetPoint" />
          </mxGeometry>
        </mxCell>
        <mxCell id="oJavIetrVoyeT8s_AKxH-25" value="" style="endArrow=classic;html=1;rounded=0;exitX=0.5;exitY=1;exitDx=0;exitDy=0;entryX=0.5;entryY=0;entryDx=0;entryDy=0;" parent="1" edge="1">
          <mxGeometry width="50" height="50" relative="1" as="geometry">
            <mxPoint x="554.6599999999999" y="380" as="sourcePoint" />
            <mxPoint x="554.6599999999999" y="420" as="targetPoint" />
          </mxGeometry>
        </mxCell>
        <mxCell id="oJavIetrVoyeT8s_AKxH-26" value="" style="endArrow=classic;html=1;rounded=0;exitX=0.5;exitY=1;exitDx=0;exitDy=0;entryX=0.5;entryY=0;entryDx=0;entryDy=0;" parent="1" edge="1">
          <mxGeometry width="50" height="50" relative="1" as="geometry">
            <mxPoint x="444.6600000000001" y="380" as="sourcePoint" />
            <mxPoint x="444.6600000000001" y="420" as="targetPoint" />
          </mxGeometry>
        </mxCell>
        <mxCell id="oJavIetrVoyeT8s_AKxH-27" value="" style="endArrow=classic;html=1;rounded=0;exitX=0.5;exitY=1;exitDx=0;exitDy=0;" parent="1" edge="1">
          <mxGeometry width="50" height="50" relative="1" as="geometry">
            <mxPoint x="465" y="420" as="sourcePoint" />
            <mxPoint x="465" y="380" as="targetPoint" />
          </mxGeometry>
        </mxCell>
        <mxCell id="oJavIetrVoyeT8s_AKxH-28" value="" style="endArrow=classic;html=1;rounded=0;" parent="1" edge="1">
          <mxGeometry width="50" height="50" relative="1" as="geometry">
            <mxPoint x="685" y="320" as="sourcePoint" />
            <mxPoint x="685.3399999999999" y="420" as="targetPoint" />
          </mxGeometry>
        </mxCell>
        <mxCell id="oJavIetrVoyeT8s_AKxH-29" value="" style="endArrow=classic;html=1;rounded=0;exitX=0.5;exitY=1;exitDx=0;exitDy=0;entryX=0.5;entryY=0;entryDx=0;entryDy=0;" parent="1" edge="1">
          <mxGeometry width="50" height="50" relative="1" as="geometry">
            <mxPoint x="343.9999999999998" y="380" as="sourcePoint" />
            <mxPoint x="343.9999999999998" y="420" as="targetPoint" />
          </mxGeometry>
        </mxCell>
        <mxCell id="oJavIetrVoyeT8s_AKxH-30" value="" style="endArrow=classic;html=1;rounded=0;exitX=0.3;exitY=0;exitDx=0;exitDy=0;exitPerimeter=0;" parent="1" source="oJavIetrVoyeT8s_AKxH-5" edge="1">
          <mxGeometry width="50" height="50" relative="1" as="geometry">
            <mxPoint x="760" y="350" as="sourcePoint" />
            <mxPoint x="575" y="380" as="targetPoint" />
          </mxGeometry>
        </mxCell>
        <mxCell id="oJavIetrVoyeT8s_AKxH-31" value="" style="endArrow=none;html=1;rounded=0;exitX=0;exitY=0;exitDx=0;exitDy=15;exitPerimeter=0;entryX=0.995;entryY=0.303;entryDx=0;entryDy=0;entryPerimeter=0;" parent="1" source="oJavIetrVoyeT8s_AKxH-3" target="oJavIetrVoyeT8s_AKxH-5" edge="1">
          <mxGeometry width="50" height="50" relative="1" as="geometry">
            <mxPoint x="795" y="390" as="sourcePoint" />
            <mxPoint x="845" y="340" as="targetPoint" />
          </mxGeometry>
        </mxCell>
        <mxCell id="oJavIetrVoyeT8s_AKxH-32" value="" style="endArrow=classic;html=1;rounded=0;exitX=0.5;exitY=1;exitDx=0;exitDy=0;" parent="1" edge="1">
          <mxGeometry width="50" height="50" relative="1" as="geometry">
            <mxPoint x="564.49" y="360" as="sourcePoint" />
            <mxPoint x="564.49" y="320" as="targetPoint" />
          </mxGeometry>
        </mxCell>
        <mxCell id="oJavIetrVoyeT8s_AKxH-33" value="" style="endArrow=classic;html=1;rounded=0;exitX=0.5;exitY=1;exitDx=0;exitDy=0;entryX=0.5;entryY=0;entryDx=0;entryDy=0;" parent="1" edge="1">
          <mxGeometry width="50" height="50" relative="1" as="geometry">
            <mxPoint x="544.8299999999999" y="320" as="sourcePoint" />
            <mxPoint x="544.8299999999999" y="360" as="targetPoint" />
          </mxGeometry>
        </mxCell>
        <mxCell id="oJavIetrVoyeT8s_AKxH-34" value="" style="endArrow=classic;html=1;rounded=0;exitX=0.75;exitY=1;exitDx=0;exitDy=0;entryX=0.3;entryY=0;entryDx=0;entryDy=0;entryPerimeter=0;" parent="1" source="oJavIetrVoyeT8s_AKxH-7" target="oJavIetrVoyeT8s_AKxH-3" edge="1">
          <mxGeometry width="50" height="50" relative="1" as="geometry">
            <mxPoint x="685.3399999999999" y="320" as="sourcePoint" />
            <mxPoint x="770.3399999999999" y="420" as="targetPoint" />
          </mxGeometry>
        </mxCell>
        <mxCell id="oJavIetrVoyeT8s_AKxH-35" value="" style="endArrow=none;html=1;rounded=0;exitX=0;exitY=0;exitDx=0;exitDy=15;exitPerimeter=0;entryX=0.998;entryY=0.3;entryDx=0;entryDy=0;entryPerimeter=0;" parent="1" source="oJavIetrVoyeT8s_AKxH-7" target="oJavIetrVoyeT8s_AKxH-8" edge="1">
          <mxGeometry width="50" height="50" relative="1" as="geometry">
            <mxPoint x="635" y="240" as="sourcePoint" />
            <mxPoint x="685" y="190" as="targetPoint" />
          </mxGeometry>
        </mxCell>
        <mxCell id="oJavIetrVoyeT8s_AKxH-36" value="" style="shape=umlActor;verticalLabelPosition=bottom;verticalAlign=top;html=1;outlineConnect=0;" parent="1" vertex="1">
          <mxGeometry x="715" y="180" width="20" height="40" as="geometry" />
        </mxCell>
        <mxCell id="oJavIetrVoyeT8s_AKxH-37" value="" style="endArrow=classic;html=1;rounded=0;" parent="1" edge="1">
          <mxGeometry width="50" height="50" relative="1" as="geometry">
            <mxPoint x="765" y="320" as="sourcePoint" />
            <mxPoint x="765.3400000000001" y="420" as="targetPoint" />
          </mxGeometry>
        </mxCell>
        <mxCell id="oJavIetrVoyeT8s_AKxH-38" value="" style="endArrow=classic;html=1;rounded=0;exitX=0.5;exitY=1;exitDx=0;exitDy=0;" parent="1" edge="1">
          <mxGeometry width="50" height="50" relative="1" as="geometry">
            <mxPoint x="757.5" y="320" as="sourcePoint" />
            <mxPoint x="702.5" y="420" as="targetPoint" />
          </mxGeometry>
        </mxCell>
        <mxCell id="oJavIetrVoyeT8s_AKxH-39" value="" style="endArrow=classic;html=1;rounded=0;entryX=0.927;entryY=-0.013;entryDx=0;entryDy=0;entryPerimeter=0;" parent="1" source="oJavIetrVoyeT8s_AKxH-36" target="oJavIetrVoyeT8s_AKxH-7" edge="1">
          <mxGeometry width="50" height="50" relative="1" as="geometry">
            <mxPoint x="725" y="230" as="sourcePoint" />
            <mxPoint x="719.8" y="270" as="targetPoint" />
          </mxGeometry>
        </mxCell>
        <mxCell id="oJavIetrVoyeT8s_AKxH-40" value="" style="endArrow=classic;html=1;rounded=0;entryX=0.2;entryY=0;entryDx=0;entryDy=0;entryPerimeter=0;" parent="1" source="oJavIetrVoyeT8s_AKxH-36" target="oJavIetrVoyeT8s_AKxH-6" edge="1">
          <mxGeometry width="50" height="50" relative="1" as="geometry">
            <mxPoint x="725" y="230" as="sourcePoint" />
            <mxPoint x="708.3999999999999" y="270" as="targetPoint" />
          </mxGeometry>
        </mxCell>
        <mxCell id="oJavIetrVoyeT8s_AKxH-41" value="" style="endArrow=classic;html=1;rounded=0;exitX=0.5;exitY=1;exitDx=0;exitDy=0;entryX=0.5;entryY=0;entryDx=0;entryDy=0;" parent="1" edge="1">
          <mxGeometry width="50" height="50" relative="1" as="geometry">
            <mxPoint x="395" y="321" as="sourcePoint" />
            <mxPoint x="395" y="361" as="targetPoint" />
          </mxGeometry>
        </mxCell>
        <mxCell id="oJavIetrVoyeT8s_AKxH-42" value="" style="endArrow=classic;html=1;rounded=0;exitX=0.5;exitY=1;exitDx=0;exitDy=0;" parent="1" edge="1">
          <mxGeometry width="50" height="50" relative="1" as="geometry">
            <mxPoint x="414.65999999999985" y="361" as="sourcePoint" />
            <mxPoint x="414.65999999999985" y="321" as="targetPoint" />
          </mxGeometry>
        </mxCell>
        <mxCell id="oJavIetrVoyeT8s_AKxH-43" value="Users run Python jobs local or &quot;lob&quot; them to the batch system via REST" style="text;html=1;strokeColor=none;fillColor=none;align=center;verticalAlign=middle;whiteSpace=wrap;rounded=0;" parent="1" vertex="1">
          <mxGeometry x="745" y="170" width="140" height="30" as="geometry" />
        </mxCell>
        <mxCell id="oJavIetrVoyeT8s_AKxH-44" value="&amp;nbsp; &amp;nbsp; &amp;nbsp;GE HPC(s)" style="verticalAlign=top;align=left;spacingTop=8;spacingLeft=2;spacingRight=12;shape=cube;size=10;direction=south;fontStyle=2;html=1;" parent="1" vertex="1">
          <mxGeometry x="345" y="185" width="100" height="70" as="geometry" />
        </mxCell>
        <mxCell id="oJavIetrVoyeT8s_AKxH-45" value="" style="endArrow=none;html=1;rounded=0;exitX=0.5;exitY=0;exitDx=0;exitDy=0;entryX=1.01;entryY=0.499;entryDx=0;entryDy=0;entryPerimeter=0;" parent="1" source="oJavIetrVoyeT8s_AKxH-18" target="oJavIetrVoyeT8s_AKxH-44" edge="1">
          <mxGeometry width="50" height="50" relative="1" as="geometry">
            <mxPoint x="385" y="20" as="sourcePoint" />
            <mxPoint x="395" y="260" as="targetPoint" />
          </mxGeometry>
        </mxCell>
        <mxCell id="oJavIetrVoyeT8s_AKxH-46" value="Type 2 Intra-Site Implementation - &quot;DT4D&quot;&lt;br&gt;Experience with this system drives the refactoring in lwfm." style="text;html=1;strokeColor=none;fillColor=none;align=center;verticalAlign=middle;whiteSpace=wrap;rounded=0;" parent="1" vertex="1">
          <mxGeometry x="170" y="100" width="400" height="30" as="geometry" />
        </mxCell>
      </root>
    </mxGraphModel>
  </diagram>
  <diagram id="AeunuAFgFgeT1SNvXtLm" name="Component Reuse">
    <mxGraphModel dx="1218" dy="820" grid="1" gridSize="10" guides="1" tooltips="1" connect="1" arrows="1" fold="1" page="1" pageScale="1" pageWidth="850" pageHeight="1100" math="0" shadow="0">
      <root>
        <mxCell id="0" />
        <mxCell id="1" parent="0" />
        <mxCell id="5S6_6U159m4TA-NMp8St-76" value="" style="rounded=0;whiteSpace=wrap;html=1;fillColor=#F8CECC;" parent="1" vertex="1">
          <mxGeometry x="300" y="280" width="90" height="50" as="geometry" />
        </mxCell>
        <mxCell id="5S6_6U159m4TA-NMp8St-37" value="&lt;p style=&quot;margin:0px;margin-top:6px;text-align:center;&quot;&gt;&lt;b&gt;lwfm Python&lt;/b&gt;&lt;/p&gt;&lt;p style=&quot;margin:0px;margin-top:6px;text-align:center;&quot;&gt;&lt;b&gt;Site Drivers&lt;/b&gt;&lt;/p&gt;" style="align=left;overflow=fill;html=1;dropTarget=0;fillColor=#FFE599;" parent="1" vertex="1">
          <mxGeometry x="280" y="380" width="110" height="150" as="geometry" />
        </mxCell>
        <mxCell id="5S6_6U159m4TA-NMp8St-47" value="&lt;p style=&quot;margin:0px;margin-top:6px;text-align:center;&quot;&gt;&lt;b&gt;Enterprise&lt;/b&gt;&lt;/p&gt;&lt;p style=&quot;margin:0px;margin-top:6px;text-align:center;&quot;&gt;&lt;b&gt;Services&lt;/b&gt;&lt;/p&gt;" style="align=left;overflow=fill;html=1;dropTarget=0;fillColor=#FFFFFF;" parent="1" vertex="1">
          <mxGeometry x="90" y="380" width="150" height="150" as="geometry" />
        </mxCell>
        <mxCell id="5S6_6U159m4TA-NMp8St-31" value="&lt;p style=&quot;margin:0px;margin-top:6px;text-align:center;&quot;&gt;&lt;b&gt;lwfm&lt;/b&gt;&lt;/p&gt;&lt;p style=&quot;margin:0px;margin-top:6px;text-align:center;&quot;&gt;&lt;b&gt;Middleware&lt;/b&gt;&lt;/p&gt;" style="align=left;overflow=fill;html=1;dropTarget=0;fillColor=#FFE599;" parent="1" vertex="1">
          <mxGeometry x="400" y="380" width="150" height="150" as="geometry" />
        </mxCell>
        <mxCell id="5S6_6U159m4TA-NMp8St-32" value="" style="shape=component;jettyWidth=8;jettyHeight=4;" parent="5S6_6U159m4TA-NMp8St-31" vertex="1">
          <mxGeometry x="1" width="20" height="20" relative="1" as="geometry">
            <mxPoint x="-24" y="4" as="offset" />
          </mxGeometry>
        </mxCell>
        <mxCell id="5S6_6U159m4TA-NMp8St-11" value="&lt;p style=&quot;margin:0px;margin-top:6px;text-align:center;&quot;&gt;&lt;b&gt;Run&lt;/b&gt;&lt;/p&gt;&lt;p style=&quot;margin:0px;margin-top:6px;text-align:center;&quot;&gt;&lt;br&gt;&lt;/p&gt;" style="align=left;overflow=fill;html=1;dropTarget=0;fillColor=#E9E9F5;" parent="1" vertex="1">
          <mxGeometry x="290" y="460" width="90" height="30" as="geometry" />
        </mxCell>
        <mxCell id="5S6_6U159m4TA-NMp8St-20" value="&lt;p style=&quot;margin:0px;margin-top:6px;text-align:center;&quot;&gt;&lt;b&gt;Event Handler&amp;nbsp; &amp;nbsp; &amp;nbsp;&lt;/b&gt;&lt;/p&gt;" style="align=left;overflow=fill;html=1;dropTarget=0;fillColor=#FFFFAD;" parent="1" vertex="1">
          <mxGeometry x="415" y="460" width="120" height="30" as="geometry" />
        </mxCell>
        <mxCell id="5S6_6U159m4TA-NMp8St-21" value="" style="shape=component;jettyWidth=8;jettyHeight=4;" parent="5S6_6U159m4TA-NMp8St-20" vertex="1">
          <mxGeometry x="1" width="20" height="20" relative="1" as="geometry">
            <mxPoint x="-24" y="4" as="offset" />
          </mxGeometry>
        </mxCell>
        <mxCell id="5S6_6U159m4TA-NMp8St-33" value="&lt;p style=&quot;margin:0px;margin-top:6px;text-align:center;&quot;&gt;&lt;b&gt;Auth&lt;/b&gt;&lt;/p&gt;" style="align=left;overflow=fill;html=1;dropTarget=0;fillColor=#E9E9F5;" parent="1" vertex="1">
          <mxGeometry x="290" y="430" width="90" height="30" as="geometry" />
        </mxCell>
        <mxCell id="5S6_6U159m4TA-NMp8St-35" value="&lt;p style=&quot;margin:0px;margin-top:6px;text-align:center;&quot;&gt;&lt;b&gt;Repo&lt;/b&gt;&lt;/p&gt;" style="align=left;overflow=fill;html=1;dropTarget=0;fillColor=#E9E9F5;" parent="1" vertex="1">
          <mxGeometry x="290" y="490" width="90" height="30" as="geometry" />
        </mxCell>
        <mxCell id="5S6_6U159m4TA-NMp8St-39" value="&lt;p style=&quot;margin:0px;margin-top:6px;text-align:center;&quot;&gt;&lt;b&gt;MetaRepo&amp;nbsp;&lt;/b&gt;&lt;/p&gt;" style="align=left;overflow=fill;html=1;dropTarget=0;fillColor=#FFFFAD;" parent="1" vertex="1">
          <mxGeometry x="415" y="490" width="120" height="30" as="geometry" />
        </mxCell>
        <mxCell id="5S6_6U159m4TA-NMp8St-40" value="" style="shape=component;jettyWidth=8;jettyHeight=4;" parent="5S6_6U159m4TA-NMp8St-39" vertex="1">
          <mxGeometry x="1" width="20" height="20" relative="1" as="geometry">
            <mxPoint x="-24" y="4" as="offset" />
          </mxGeometry>
        </mxCell>
        <mxCell id="5S6_6U159m4TA-NMp8St-41" value="" style="endArrow=classic;html=1;rounded=0;exitX=1;exitY=0.5;exitDx=0;exitDy=0;entryX=0;entryY=0.5;entryDx=0;entryDy=0;" parent="1" source="5S6_6U159m4TA-NMp8St-11" target="5S6_6U159m4TA-NMp8St-20" edge="1">
          <mxGeometry width="50" height="50" relative="1" as="geometry">
            <mxPoint x="420" y="680" as="sourcePoint" />
            <mxPoint x="470" y="630" as="targetPoint" />
          </mxGeometry>
        </mxCell>
        <mxCell id="5S6_6U159m4TA-NMp8St-42" value="" style="endArrow=classic;html=1;rounded=0;exitX=1;exitY=0.5;exitDx=0;exitDy=0;entryX=0;entryY=0.5;entryDx=0;entryDy=0;" parent="1" source="5S6_6U159m4TA-NMp8St-35" target="5S6_6U159m4TA-NMp8St-39" edge="1">
          <mxGeometry width="50" height="50" relative="1" as="geometry">
            <mxPoint x="390" y="485" as="sourcePoint" />
            <mxPoint x="425" y="485" as="targetPoint" />
          </mxGeometry>
        </mxCell>
        <mxCell id="5S6_6U159m4TA-NMp8St-43" value="&lt;p style=&quot;margin:0px;margin-top:6px;text-align:center;&quot;&gt;&lt;b&gt;User Authenticaion&lt;/b&gt;&lt;/p&gt;" style="align=left;overflow=fill;html=1;dropTarget=0;fillColor=#FFFFAD;" parent="1" vertex="1">
          <mxGeometry x="105" y="430" width="120" height="30" as="geometry" />
        </mxCell>
        <mxCell id="5S6_6U159m4TA-NMp8St-45" value="&lt;p style=&quot;margin:0px;margin-top:6px;text-align:center;&quot;&gt;&lt;b&gt;Scheduler&lt;/b&gt;&lt;/p&gt;" style="align=left;overflow=fill;html=1;dropTarget=0;fillColor=#FFFFAD;" parent="1" vertex="1">
          <mxGeometry x="105" y="460" width="120" height="30" as="geometry" />
        </mxCell>
        <mxCell id="5S6_6U159m4TA-NMp8St-48" value="" style="endArrow=classic;html=1;rounded=0;exitX=0;exitY=0.5;exitDx=0;exitDy=0;entryX=1;entryY=0.5;entryDx=0;entryDy=0;" parent="1" source="5S6_6U159m4TA-NMp8St-33" target="5S6_6U159m4TA-NMp8St-43" edge="1">
          <mxGeometry width="50" height="50" relative="1" as="geometry">
            <mxPoint x="40" y="660" as="sourcePoint" />
            <mxPoint x="90" y="610" as="targetPoint" />
          </mxGeometry>
        </mxCell>
        <mxCell id="5S6_6U159m4TA-NMp8St-49" value="" style="endArrow=classic;html=1;rounded=0;exitX=0;exitY=0.5;exitDx=0;exitDy=0;entryX=1;entryY=0.5;entryDx=0;entryDy=0;" parent="1" edge="1">
          <mxGeometry width="50" height="50" relative="1" as="geometry">
            <mxPoint x="290" y="474.5" as="sourcePoint" />
            <mxPoint x="225" y="474.5" as="targetPoint" />
          </mxGeometry>
        </mxCell>
        <mxCell id="5S6_6U159m4TA-NMp8St-50" value="&lt;p style=&quot;margin:0px;margin-top:6px;text-align:center;&quot;&gt;&lt;b&gt;Local Storage&lt;/b&gt;&lt;/p&gt;" style="align=left;overflow=fill;html=1;dropTarget=0;fillColor=#FFFFAD;" parent="1" vertex="1">
          <mxGeometry x="105" y="490" width="120" height="30" as="geometry" />
        </mxCell>
        <mxCell id="5S6_6U159m4TA-NMp8St-51" value="" style="endArrow=classic;html=1;rounded=0;exitX=0;exitY=0.5;exitDx=0;exitDy=0;entryX=1;entryY=0.5;entryDx=0;entryDy=0;" parent="1" edge="1">
          <mxGeometry width="50" height="50" relative="1" as="geometry">
            <mxPoint x="290" y="504.5" as="sourcePoint" />
            <mxPoint x="225" y="504.5" as="targetPoint" />
          </mxGeometry>
        </mxCell>
        <mxCell id="5S6_6U159m4TA-NMp8St-53" value="&lt;b&gt;Type 1 / 2 / 3&lt;br&gt;User&lt;br&gt;Workflows&lt;/b&gt;" style="rounded=0;whiteSpace=wrap;html=1;fillColor=#F8CECC;" parent="1" vertex="1">
          <mxGeometry x="290" y="290" width="90" height="50" as="geometry" />
        </mxCell>
        <mxCell id="5S6_6U159m4TA-NMp8St-54" value="" style="endArrow=classic;html=1;rounded=0;exitX=0.5;exitY=1;exitDx=0;exitDy=0;" parent="1" source="5S6_6U159m4TA-NMp8St-53" edge="1">
          <mxGeometry width="50" height="50" relative="1" as="geometry">
            <mxPoint x="220" y="690" as="sourcePoint" />
            <mxPoint x="335" y="380" as="targetPoint" />
          </mxGeometry>
        </mxCell>
        <mxCell id="5S6_6U159m4TA-NMp8St-77" value="&lt;h1&gt;&lt;font style=&quot;font-size: 18px;&quot;&gt;Consistent Workflow Programming Interface Within &amp;amp; Across Sites:&lt;/font&gt;&lt;/h1&gt;&lt;p&gt;&lt;/p&gt;&lt;ul&gt;&lt;li&gt;&lt;font style=&quot;font-size: 18px;&quot;&gt;Authenticate&lt;/font&gt;&lt;/li&gt;&lt;li&gt;&lt;font style=&quot;font-size: 18px;&quot;&gt;Run jobs now &amp;amp; in futures&lt;/font&gt;&lt;/li&gt;&lt;li&gt;&lt;font style=&quot;font-size: 18px;&quot;&gt;Manage data &amp;amp; metadata, import / export&lt;/font&gt;&lt;/li&gt;&lt;li&gt;&lt;font style=&quot;font-size: 18px;&quot;&gt;Job tracking GUI&amp;nbsp;&lt;/font&gt;&lt;/li&gt;&lt;/ul&gt;" style="text;html=1;strokeColor=none;fillColor=none;spacing=5;spacingTop=-20;whiteSpace=wrap;overflow=hidden;rounded=0;" parent="1" vertex="1">
          <mxGeometry x="150" y="80" width="390" height="180" as="geometry" />
        </mxCell>
      </root>
    </mxGraphModel>
  </diagram>
  <diagram id="TIapJcPUlhdl_XyjZCMP" name="Page-6">
    <mxGraphModel dx="1218" dy="820" grid="1" gridSize="10" guides="1" tooltips="1" connect="1" arrows="1" fold="1" page="1" pageScale="1" pageWidth="850" pageHeight="1100" math="0" shadow="0">
      <root>
        <mxCell id="0" />
        <mxCell id="1" parent="0" />
        <mxCell id="vhknVYmGcN0EQlM8oGGL-1" value="" style="rounded=0;whiteSpace=wrap;html=1;fillColor=#F8CECC;" vertex="1" parent="1">
          <mxGeometry x="300" y="280" width="90" height="50" as="geometry" />
        </mxCell>
        <mxCell id="vhknVYmGcN0EQlM8oGGL-2" value="&lt;p style=&quot;margin:0px;margin-top:6px;text-align:center;&quot;&gt;&lt;b&gt;lwfm Python&lt;/b&gt;&lt;/p&gt;&lt;p style=&quot;margin:0px;margin-top:6px;text-align:center;&quot;&gt;&lt;b&gt;Site Drivers&lt;/b&gt;&lt;/p&gt;" style="align=left;overflow=fill;html=1;dropTarget=0;fillColor=#FFE599;" vertex="1" parent="1">
          <mxGeometry x="280" y="380" width="110" height="150" as="geometry" />
        </mxCell>
        <mxCell id="vhknVYmGcN0EQlM8oGGL-3" value="&lt;p style=&quot;margin:0px;margin-top:6px;text-align:center;&quot;&gt;&lt;b&gt;Enterprise&lt;/b&gt;&lt;/p&gt;&lt;p style=&quot;margin:0px;margin-top:6px;text-align:center;&quot;&gt;&lt;b&gt;Services&lt;/b&gt;&lt;/p&gt;" style="align=left;overflow=fill;html=1;dropTarget=0;fillColor=#FFFFFF;" vertex="1" parent="1">
          <mxGeometry x="90" y="380" width="150" height="150" as="geometry" />
        </mxCell>
        <mxCell id="vhknVYmGcN0EQlM8oGGL-4" value="&lt;p style=&quot;margin:0px;margin-top:6px;text-align:center;&quot;&gt;&lt;b&gt;lwfm&lt;/b&gt;&lt;/p&gt;&lt;p style=&quot;margin:0px;margin-top:6px;text-align:center;&quot;&gt;&lt;b&gt;Middleware&lt;/b&gt;&lt;/p&gt;" style="align=left;overflow=fill;html=1;dropTarget=0;fillColor=#FFE599;" vertex="1" parent="1">
          <mxGeometry x="400" y="380" width="150" height="150" as="geometry" />
        </mxCell>
        <mxCell id="vhknVYmGcN0EQlM8oGGL-5" value="" style="shape=component;jettyWidth=8;jettyHeight=4;" vertex="1" parent="vhknVYmGcN0EQlM8oGGL-4">
          <mxGeometry x="1" width="20" height="20" relative="1" as="geometry">
            <mxPoint x="-24" y="4" as="offset" />
          </mxGeometry>
        </mxCell>
        <mxCell id="vhknVYmGcN0EQlM8oGGL-6" value="&lt;p style=&quot;margin:0px;margin-top:6px;text-align:center;&quot;&gt;&lt;b&gt;Run&lt;/b&gt;&lt;/p&gt;&lt;p style=&quot;margin:0px;margin-top:6px;text-align:center;&quot;&gt;&lt;br&gt;&lt;/p&gt;" style="align=left;overflow=fill;html=1;dropTarget=0;fillColor=#E9E9F5;" vertex="1" parent="1">
          <mxGeometry x="290" y="460" width="90" height="30" as="geometry" />
        </mxCell>
        <mxCell id="vhknVYmGcN0EQlM8oGGL-7" value="&lt;p style=&quot;margin:0px;margin-top:6px;text-align:center;&quot;&gt;&lt;b&gt;Event Handler&amp;nbsp; &amp;nbsp; &amp;nbsp;&lt;/b&gt;&lt;/p&gt;" style="align=left;overflow=fill;html=1;dropTarget=0;fillColor=#FFFFAD;" vertex="1" parent="1">
          <mxGeometry x="415" y="460" width="120" height="30" as="geometry" />
        </mxCell>
        <mxCell id="vhknVYmGcN0EQlM8oGGL-8" value="" style="shape=component;jettyWidth=8;jettyHeight=4;" vertex="1" parent="vhknVYmGcN0EQlM8oGGL-7">
          <mxGeometry x="1" width="20" height="20" relative="1" as="geometry">
            <mxPoint x="-24" y="4" as="offset" />
          </mxGeometry>
        </mxCell>
        <mxCell id="vhknVYmGcN0EQlM8oGGL-9" value="&lt;p style=&quot;margin:0px;margin-top:6px;text-align:center;&quot;&gt;&lt;b&gt;Auth&lt;/b&gt;&lt;/p&gt;" style="align=left;overflow=fill;html=1;dropTarget=0;fillColor=#E9E9F5;" vertex="1" parent="1">
          <mxGeometry x="290" y="430" width="90" height="30" as="geometry" />
        </mxCell>
        <mxCell id="vhknVYmGcN0EQlM8oGGL-10" value="&lt;p style=&quot;margin:0px;margin-top:6px;text-align:center;&quot;&gt;&lt;b&gt;Repo&lt;/b&gt;&lt;/p&gt;" style="align=left;overflow=fill;html=1;dropTarget=0;fillColor=#E9E9F5;" vertex="1" parent="1">
          <mxGeometry x="290" y="490" width="90" height="30" as="geometry" />
        </mxCell>
        <mxCell id="vhknVYmGcN0EQlM8oGGL-11" value="&lt;p style=&quot;margin:0px;margin-top:6px;text-align:center;&quot;&gt;&lt;b&gt;MetaRepo&amp;nbsp;&lt;/b&gt;&lt;/p&gt;" style="align=left;overflow=fill;html=1;dropTarget=0;fillColor=#FFFFAD;" vertex="1" parent="1">
          <mxGeometry x="415" y="490" width="120" height="30" as="geometry" />
        </mxCell>
        <mxCell id="vhknVYmGcN0EQlM8oGGL-12" value="" style="shape=component;jettyWidth=8;jettyHeight=4;" vertex="1" parent="vhknVYmGcN0EQlM8oGGL-11">
          <mxGeometry x="1" width="20" height="20" relative="1" as="geometry">
            <mxPoint x="-24" y="4" as="offset" />
          </mxGeometry>
        </mxCell>
        <mxCell id="vhknVYmGcN0EQlM8oGGL-13" value="" style="endArrow=classic;html=1;rounded=0;exitX=1;exitY=0.5;exitDx=0;exitDy=0;entryX=0;entryY=0.5;entryDx=0;entryDy=0;" edge="1" parent="1" source="vhknVYmGcN0EQlM8oGGL-6" target="vhknVYmGcN0EQlM8oGGL-7">
          <mxGeometry width="50" height="50" relative="1" as="geometry">
            <mxPoint x="420" y="680" as="sourcePoint" />
            <mxPoint x="470" y="630" as="targetPoint" />
          </mxGeometry>
        </mxCell>
        <mxCell id="vhknVYmGcN0EQlM8oGGL-14" value="" style="endArrow=classic;html=1;rounded=0;exitX=1;exitY=0.5;exitDx=0;exitDy=0;entryX=0;entryY=0.5;entryDx=0;entryDy=0;" edge="1" parent="1" source="vhknVYmGcN0EQlM8oGGL-10" target="vhknVYmGcN0EQlM8oGGL-11">
          <mxGeometry width="50" height="50" relative="1" as="geometry">
            <mxPoint x="390" y="485" as="sourcePoint" />
            <mxPoint x="425" y="485" as="targetPoint" />
          </mxGeometry>
        </mxCell>
        <mxCell id="vhknVYmGcN0EQlM8oGGL-15" value="&lt;p style=&quot;margin:0px;margin-top:6px;text-align:center;&quot;&gt;&lt;b&gt;User Authenticaion&lt;/b&gt;&lt;/p&gt;" style="align=left;overflow=fill;html=1;dropTarget=0;fillColor=#FFFFAD;" vertex="1" parent="1">
          <mxGeometry x="105" y="430" width="120" height="30" as="geometry" />
        </mxCell>
        <mxCell id="vhknVYmGcN0EQlM8oGGL-16" value="&lt;p style=&quot;margin:0px;margin-top:6px;text-align:center;&quot;&gt;&lt;b&gt;Scheduler&lt;/b&gt;&lt;/p&gt;" style="align=left;overflow=fill;html=1;dropTarget=0;fillColor=#FFFFAD;" vertex="1" parent="1">
          <mxGeometry x="105" y="460" width="120" height="30" as="geometry" />
        </mxCell>
        <mxCell id="vhknVYmGcN0EQlM8oGGL-17" value="" style="endArrow=classic;html=1;rounded=0;exitX=0;exitY=0.5;exitDx=0;exitDy=0;entryX=1;entryY=0.5;entryDx=0;entryDy=0;" edge="1" parent="1" source="vhknVYmGcN0EQlM8oGGL-9" target="vhknVYmGcN0EQlM8oGGL-15">
          <mxGeometry width="50" height="50" relative="1" as="geometry">
            <mxPoint x="40" y="660" as="sourcePoint" />
            <mxPoint x="90" y="610" as="targetPoint" />
          </mxGeometry>
        </mxCell>
        <mxCell id="vhknVYmGcN0EQlM8oGGL-18" value="" style="endArrow=classic;html=1;rounded=0;exitX=0;exitY=0.5;exitDx=0;exitDy=0;entryX=1;entryY=0.5;entryDx=0;entryDy=0;" edge="1" parent="1">
          <mxGeometry width="50" height="50" relative="1" as="geometry">
            <mxPoint x="290" y="474.5" as="sourcePoint" />
            <mxPoint x="225" y="474.5" as="targetPoint" />
          </mxGeometry>
        </mxCell>
        <mxCell id="vhknVYmGcN0EQlM8oGGL-19" value="&lt;p style=&quot;margin:0px;margin-top:6px;text-align:center;&quot;&gt;&lt;b&gt;Local Storage&lt;/b&gt;&lt;/p&gt;" style="align=left;overflow=fill;html=1;dropTarget=0;fillColor=#FFFFAD;" vertex="1" parent="1">
          <mxGeometry x="105" y="490" width="120" height="30" as="geometry" />
        </mxCell>
        <mxCell id="vhknVYmGcN0EQlM8oGGL-20" value="" style="endArrow=classic;html=1;rounded=0;exitX=0;exitY=0.5;exitDx=0;exitDy=0;entryX=1;entryY=0.5;entryDx=0;entryDy=0;" edge="1" parent="1">
          <mxGeometry width="50" height="50" relative="1" as="geometry">
            <mxPoint x="290" y="504.5" as="sourcePoint" />
            <mxPoint x="225" y="504.5" as="targetPoint" />
          </mxGeometry>
        </mxCell>
        <mxCell id="vhknVYmGcN0EQlM8oGGL-21" value="&lt;b&gt;Type 1 / 2 / 3&lt;br&gt;User&lt;br&gt;Workflows&lt;/b&gt;" style="rounded=0;whiteSpace=wrap;html=1;fillColor=#F8CECC;" vertex="1" parent="1">
          <mxGeometry x="290" y="290" width="90" height="50" as="geometry" />
        </mxCell>
        <mxCell id="vhknVYmGcN0EQlM8oGGL-22" value="" style="endArrow=classic;html=1;rounded=0;exitX=0.5;exitY=1;exitDx=0;exitDy=0;" edge="1" parent="1" source="vhknVYmGcN0EQlM8oGGL-21">
          <mxGeometry width="50" height="50" relative="1" as="geometry">
            <mxPoint x="220" y="690" as="sourcePoint" />
            <mxPoint x="335" y="380" as="targetPoint" />
          </mxGeometry>
        </mxCell>
      </root>
    </mxGraphModel>
  </diagram>
</mxfile>
